<?xml version="1.0" encoding="utf-8"?>
<!-- Generator: Adobe Illustrator 24.2.0, SVG Export Plug-In . SVG Version: 6.00 Build 0)  -->
<svg version="1.1" id="Layer_1" xmlns="http://www.w3.org/2000/svg" xmlns:xlink="http://www.w3.org/1999/xlink" x="0px" y="0px"
	 viewBox="0 0 919 781" style="enable-background:new 0 0 919 781;" xml:space="preserve">
<style type="text/css">
	.st0{fill:#FF7745;}
	.st1{opacity:0.72;}
	.st2{fill:#3C3C3F;}
	.st3{fill:#404043;}
	.st4{fill:#4A4A4D;}
	.st5{enable-background:new    ;}
	.st6{fill:#A8A8A8;}
	.st7{fill:#E7A200;}
	.st8{fill:#969696;}
	.st9{fill:#727272;}
	.st10{fill:#9B9B9B;}
	.st11{fill:#707070;}
	.st12{fill:#6B6B6B;}
	.st13{fill:#7C7C7C;}
	.st14{fill:#E9A400;}
	.st15{fill:#F2AB00;}
	.st16{fill:#5B5B5B;}
	.st17{fill:#875E00;}
	.st18{fill:#A4A4A4;}
	.st19{fill:#EFA900;}
	.st20{fill:#ADADAD;}
	.st21{fill:#7F7F7F;}
	.st22{fill:#777777;}
	.st23{fill:#C1C1C1;}
	.st24{fill:#C58A00;}
	.st25{fill:#DA9900;}
	.st26{fill:#D8D8D8;}
	.st27{fill:#EFEFEF;}
	.st28{fill:#D6D6D6;}
	.st29{fill:#3D3D40;}
	.st30{fill:#4C4C50;}
	.st31{fill:#505054;}
	.st32{fill:#464648;}
	.st33{clip-path:url(#SVGID_2_);}
	.st34{clip-path:url(#SVGID_4_);}
	.st35{clip-path:url(#SVGID_6_);}
	.st36{fill:#BFBFBF;}
	.st37{fill:#B84F3F;}
	.st38{fill:#B75441;}
	.st39{fill:#EA683F;}
	.st40{fill:#5D626C;}
	.st41{fill:#939393;}
	.st42{fill:#AAAAAA;}
	.st43{fill:#FFFFFF;}
	.st44{fill:#FFFFFF;stroke:#000000;stroke-miterlimit:10;}
	.st45{fill:#FFFFFF;stroke:#000000;stroke-width:2;stroke-miterlimit:10;}
	.st46{fill:#FFFFFF;stroke:#000000;stroke-width:3;stroke-miterlimit:10;}
	.st47{clip-path:url(#SVGID_8_);}
	.st48{fill:none;stroke:#000000;stroke-width:3;stroke-miterlimit:10;}
	.st49{clip-path:url(#SVGID_10_);}
	.st50{display:none;}
	.st51{display:inline;fill:#FFFFFF;}
	.st52{display:inline;}
	.st53{clip-path:url(#SVGID_12_);}
	.st54{clip-path:url(#SVGID_14_);}
	.st55{stroke:#FFFFFF;stroke-width:10;stroke-miterlimit:10;}
	.st56{clip-path:url(#SVGID_16_);}
	.st57{clip-path:url(#SVGID_18_);}
	.st58{clip-path:url(#SVGID_20_);}
	.st59{clip-path:url(#SVGID_22_);}
	.st60{filter:url(#Adobe_OpacityMaskFilter);}
	.st61{mask:url(#SVGID_23_);}
	.st62{fill:#2D2D2D;}
	.st63{fill:none;stroke:#FF7745;stroke-width:4;stroke-miterlimit:10;}
	.st64{fill:none;stroke:#FF7745;stroke-width:3;stroke-miterlimit:10;}
	.st65{fill:none;stroke:#FF7745;stroke-width:5;stroke-linecap:round;stroke-miterlimit:10;}
	.st66{fill:none;stroke:#FF7745;stroke-width:6;stroke-linecap:round;stroke-miterlimit:10;}
	.st67{fill:none;stroke:#FF7745;stroke-width:3;stroke-linecap:round;stroke-miterlimit:10;}
	.st68{fill:none;stroke:#2D2D2D;stroke-width:2;stroke-miterlimit:10;}
	.st69{filter:url(#Adobe_OpacityMaskFilter_1_);}
	.st70{mask:url(#SVGID_24_);}
	.st71{filter:url(#Adobe_OpacityMaskFilter_2_);}
	.st72{mask:url(#SVGID_25_);}
	.st73{filter:url(#Adobe_OpacityMaskFilter_3_);}
	.st74{mask:url(#SVGID_26_);}
	.st75{filter:url(#Adobe_OpacityMaskFilter_4_);}
	.st76{mask:url(#SVGID_27_);}
</style>
<g>
	<g>
		<defs>
			<filter id="Adobe_OpacityMaskFilter" filterUnits="userSpaceOnUse" x="345.56" y="82" width="187.63" height="205.87">
				<feColorMatrix  type="matrix" values="1 0 0 0 0  0 1 0 0 0  0 0 1 0 0  0 0 0 1 0"/>
			</filter>
		</defs>
		<mask maskUnits="userSpaceOnUse" x="345.56" y="82" width="187.63" height="205.87" id="SVGID_2_">
			<g class="st60">
				<rect x="117.07" y="48.69" class="st43" width="668.47" height="869.7"/>
				<rect x="97.13" y="445.81" width="676.38" height="170.53"/>
			</g>
		</mask>
		<g style="mask:url(#SVGID_2_);">
			<g>
				<path class="st62" d="M526.42,287.87c-3.74,0-6.77-3.03-6.77-6.77V175.81c0-44.27-36.01-80.28-80.28-80.28
					s-80.28,36.01-80.28,80.28V281.1c0,3.74-3.03,6.77-6.77,6.77c-3.74,0-6.77-3.03-6.77-6.77V175.81
					c0-51.73,42.09-93.81,93.82-93.81s93.82,42.08,93.82,93.81V281.1C533.19,284.84,530.16,287.87,526.42,287.87z"/>
			</g>
		</g>
	</g>
	<g>
		<path class="st62" d="M114.18,285.44H1.78c-0.93,0-1.69-0.76-1.69-1.69c0-0.93,0.76-1.69,1.69-1.69h112.4
			c0.93,0,1.69,0.76,1.69,1.69C115.88,284.68,115.12,285.44,114.18,285.44z"/>
	</g>
	<g>
		<path class="st62" d="M917.18,625.44h-112.4c-0.93,0-1.69-0.76-1.69-1.69c0-0.93,0.76-1.69,1.69-1.69h112.4
			c0.93,0,1.69,0.76,1.69,1.69C918.88,624.68,918.12,625.44,917.18,625.44z"/>
	</g>
	<g>
		<path class="st62" d="M558.45,781.14h-85.55c-0.93,0-1.69-0.76-1.69-1.69c0-0.93,0.76-1.69,1.69-1.69h85.55
			c0.93,0,1.69,0.76,1.69,1.69C560.14,780.38,559.39,781.14,558.45,781.14z"/>
	</g>
</g>
<circle class="st63" cx="736" cy="40" r="20"/>
<circle class="st64" cx="260.5" cy="12.5" r="10"/>
<g>
	<line class="st65" x1="736.06" y1="164.06" x2="762.94" y2="190.94"/>
	<line class="st65" x1="763.29" y1="164.42" x2="736.42" y2="191.29"/>
</g>
<g>
	<line class="st66" x1="144.06" y1="130.06" x2="170.94" y2="156.94"/>
	<line class="st66" x1="171.29" y1="130.42" x2="144.42" y2="157.29"/>
</g>
<g>
	<line class="st67" x1="599.11" y1="42.24" x2="611.2" y2="67.6"/>
	<line class="st67" x1="618" y1="49.21" x2="592.63" y2="61.3"/>
</g>
<g>
	<path class="st62" d="M576.48,460.98c-0.41,0.01-0.82,0.04-1.23,0.04c-2.04,0-4.08-0.01-6.11,0.01c-0.48,0.01-0.71-0.17-0.87-0.6
		c-2.7-7.53-5.41-15.05-8.12-22.58c-0.36-1.01-0.73-2.02-1.14-3.15c-0.35,0.94-0.65,1.77-0.95,2.59c-2.8,7.77-5.6,15.53-8.4,23.3
		c-0.09,0.25-0.18,0.43-0.49,0.43c-2.46-0.01-4.93,0-7.39-0.01c-0.07,0-0.14-0.02-0.26-0.04c0.45-1.2,0.88-2.37,1.32-3.54
		c3.95-10.44,7.91-20.88,11.86-31.32c0.29-0.76,0.31-0.77,1.12-0.77c2.24,0,4.47,0.01,6.71-0.01c0.48-0.01,0.71,0.18,0.86,0.61
		c2.47,6.62,4.94,13.23,7.42,19.85c1.83,4.89,3.66,9.77,5.49,14.66c0.05,0.12,0.12,0.24,0.18,0.36
		C576.48,460.86,576.48,460.92,576.48,460.98z"/>
	<path class="st62" d="M467.23,448.99c0-0.18,0-0.35,0-0.53c0-7.48,0-14.96,0-22.45c0-0.62,0.17-0.77,0.79-0.75
		c1,0.03,2,0.05,3,0.06c0.96,0.01,1.92,0,2.87,0c0.58,0,0.62,0.04,0.62,0.62c0,3.41,0,6.83,0,10.24c0,8.01,0,16.03,0,24.04
		c0,0.77-0.01,0.77-0.76,0.77c-2.11,0-4.23-0.01-6.34,0.01c-0.47,0-0.77-0.17-1.01-0.55c-3.46-5.58-6.93-11.16-10.4-16.74
		c-1.29-2.07-2.59-4.14-3.88-6.22c-0.05-0.08-0.1-0.15-0.2-0.29c-0.02,0.18-0.04,0.29-0.04,0.4c0,7.54,0,15.09,0,22.63
		c0,0.73-0.04,0.76-0.78,0.76c-1.92,0-3.83,0-5.75,0c-0.61,0-0.66-0.04-0.66-0.64c0-11.49,0-22.98,0-34.47
		c0-0.52,0.14-0.65,0.64-0.64c1.53,0.03,3.07,0.05,4.6,0.06c0.61,0,1.21-0.05,1.82-0.05c0.41,0,0.7,0.17,0.93,0.54
		c1.7,2.75,3.41,5.49,5.12,8.23c3.07,4.93,6.14,9.86,9.22,14.79c0.04,0.06,0.09,0.12,0.13,0.18
		C467.17,449.01,467.2,449,467.23,448.99z"/>
	<path class="st62" d="M513.75,431.95c-0.28,0-0.46,0-0.63,0c-5.43,0-10.86,0-16.29,0.01c-0.73,0-0.75-0.02-0.75-0.73
		c0-1.79,0-3.58,0-5.37c0-0.54,0.06-0.61,0.6-0.61c8.93,0,17.86,0,26.79,0c0.52,0,0.61,0.09,0.62,0.61c0,1.76,0.02,3.52-0.01,5.28
		c-0.01,0.31-0.14,0.67-0.33,0.91c-1.58,1.9-3.2,3.77-4.8,5.66c-1.98,2.32-3.95,4.65-5.92,6.97c-1.77,2.08-3.54,4.16-5.31,6.24
		c-0.93,1.1-1.86,2.19-2.89,3.4c0.31,0,0.5,0,0.68,0c6.07,0,12.14,0,18.21,0c0.83,0,0.99,0.23,0.9,1.04
		c-0.07,0.64-0.05,1.3-0.05,1.95c0.01,1.06,0.04,2.12,0.05,3.18c0,0.35-0.15,0.53-0.56,0.53c-2.91-0.02-5.81-0.01-8.72-0.01
		c-6.69,0-13.39,0-20.08,0c-0.7,0-0.72-0.02-0.72-0.72c0-1.59,0.01-3.19-0.01-4.78c-0.01-0.49,0.15-0.88,0.46-1.24
		c3.73-4.42,7.45-8.84,11.18-13.26c2.47-2.94,4.95-5.87,7.43-8.8C513.62,432.16,513.64,432.11,513.75,431.95z"/>
	<path class="st62" d="M316.36,461.01c-4.08,0-8.15,0-12.23,0c-0.62,0-0.65-0.03-0.65-0.64c0-4.14-0.01-8.29,0.01-12.43
		c0-0.31,0.13-0.67,0.32-0.9c0.96-1.19,1.95-2.37,2.96-3.52c0.31-0.36,0.3-0.59,0-0.93c-1-1.16-2-2.33-2.96-3.52
		c-0.19-0.24-0.33-0.6-0.33-0.9c-0.02-4.1-0.01-8.2-0.01-12.29c0-0.56,0.07-0.62,0.63-0.62c8.05,0,16.09,0,24.14,0
		c0.56,0,0.59,0.04,0.59,0.6c0,1.82,0,3.64,0,5.46c0,0.64-0.01,0.65-0.67,0.65c-5.34,0-10.68,0-16.02,0c-0.73,0-0.75,0.02-0.75,0.74
		c0,2.12,0,4.25,0,6.37c0,0.73,0.02,0.75,0.73,0.75c4.79,0,9.58,0,14.37-0.01c0.79,0,0.85,0.06,0.85,0.85c0,1.7,0,3.4,0,5.1
		c0,0.63-0.04,0.68-0.67,0.68c-4.84,0-9.67,0-14.51,0c-0.76,0-0.77,0.02-0.77,0.76c0,2.12,0,4.25,0,6.37c0,0.74,0,0.74,0.73,0.74
		c5.43,0,10.86-0.01,16.29-0.02c0.83,0,0.87,0.04,0.87,0.87c0,1.73,0,3.46,0,5.19c0,0.59-0.05,0.65-0.66,0.65
		C324.54,461.01,320.45,461.01,316.36,461.01z"/>
	<path class="st62" d="M426.82,461.02c-0.23,0-0.39,0-0.55,0c-2.31,0-4.62-0.01-6.94,0.01c-0.38,0-0.55-0.12-0.68-0.48
		c-3.02-8.43-6.06-16.85-9.1-25.27c-0.05-0.14-0.11-0.27-0.2-0.52c-0.1,0.25-0.17,0.4-0.23,0.56c-3.03,8.39-6.06,16.78-9.08,25.18
		c-0.14,0.39-0.33,0.54-0.75,0.54c-2.3-0.02-4.59-0.01-6.89-0.01c-0.15,0-0.3,0-0.52,0c0.07-0.24,0.11-0.43,0.18-0.6
		c2.59-6.83,5.17-13.67,7.76-20.5c1.76-4.64,3.52-9.28,5.26-13.93c0.18-0.49,0.45-0.67,0.98-0.66c2.28,0.03,4.56,0.02,6.84,0
		c0.44,0,0.66,0.16,0.81,0.55c3.59,9.61,7.18,19.21,10.78,28.82c0.72,1.93,1.44,3.85,2.16,5.78
		C426.71,460.63,426.75,460.78,426.82,461.02z"/>
	<path class="st62" d="M352.04,443.22c0-5.69,0-11.38,0-17.07c0-0.8,0.18-0.93,0.99-0.85c0.53,0.06,1.06,0.04,1.59,0.03
		c1.58-0.01,3.16-0.04,4.74-0.06c0.54-0.01,0.69,0.15,0.69,0.76c0,9.09-0.01,18.18-0.01,27.27c0,1,0,1,1,1c5.23,0,10.47,0,15.7,0
		c0.64,0,0.66,0.02,0.66,0.66c0,1.84-0.01,3.67,0.01,5.51c0,0.42-0.12,0.56-0.54,0.55c-8.08-0.01-16.15,0-24.23-0.01
		c-0.52,0-0.6-0.09-0.6-0.72c0-5.36,0.01-10.72,0.01-16.07c0-0.33,0-0.67,0-1C352.05,443.22,352.05,443.22,352.04,443.22z"/>
</g>
<g>
	<path class="st62" d="M771.31,726.19H110.73c-3.69,0-6.69-3.03-6.69-6.77l43.48-484.89c0-3.74,3-6.77,6.69-6.77h574.61
		c3.69,0,6.69,3.03,6.69,6.77L778,719.42C778,723.16,775,726.19,771.31,726.19z M112.27,718.07h657.5l-43.28-482.18H156.56
		L112.27,718.07z"/>
</g>
<polygon class="st62" points="122,597 109,722 773,722 759,597 "/>
<g>
	<path class="st43" d="M544.86,651.37c1.73,0,3.42,0,5.14,0c0,5.54,0,11.05,0,16.62c-1.12,0.04-2.24,0.01-3.42,0.02
		c0-3.88,0-7.7,0-11.52c-0.04-0.01-0.08-0.01-0.12-0.02c-1.33,3.83-2.65,7.66-3.98,11.51c-0.94,0-1.87,0-2.85,0
		c-1.32-3.78-2.65-7.58-3.97-11.36c-0.05,0-0.07-0.01-0.08,0c-0.01,0.01-0.02,0.03-0.03,0.04c-0.01,0.05-0.02,0.1-0.02,0.14
		c-0.01,3.69-0.01,7.38-0.02,11.07c0,0.02-0.01,0.03-0.03,0.11c-1.09,0.06-2.21,0.02-3.31,0.03c-0.11-0.4-0.14-15.86-0.05-16.58
		c0.34-0.11,4.52-0.14,5.15-0.03c1.27,3.74,2.55,7.5,3.83,11.26c0.04,0,0.08,0,0.12,0C542.43,658.9,543.64,655.14,544.86,651.37z"/>
	<path class="st43" d="M411.45,668.01c-0.17,0-0.33,0-0.49,0c-0.87,0-1.73-0.02-2.6,0.01c-0.34,0.01-0.53-0.11-0.7-0.39
		c-2.1-3.4-4.22-6.8-6.33-10.2c-0.09-0.15-0.19-0.29-0.37-0.42c0,3.64,0,7.29,0,10.97c-1.12,0-2.19,0-3.3,0c0-5.52,0-11.03,0-16.6
		c0.15-0.01,0.31-0.03,0.46-0.03c0.85,0,1.7,0.02,2.55-0.01c0.35-0.01,0.56,0.11,0.74,0.41c2.09,3.38,4.19,6.74,6.28,10.11
		c0.11,0.18,0.22,0.35,0.33,0.52c0.03-0.01,0.07-0.01,0.1-0.02c0-1.82,0-3.64,0-5.45c0-1.83,0-3.65,0-5.47
		c0.41-0.11,2.77-0.13,3.32-0.03C411.45,656.91,411.45,662.43,411.45,668.01z"/>
	<path class="st43" d="M522.97,659.75c0,1.61-0.3,3.15-1.09,4.57c-1.36,2.45-3.49,3.72-6.27,3.93c-1.25,0.09-2.48-0.01-3.67-0.44
		c-2.26-0.82-3.79-2.4-4.59-4.65c-0.82-2.31-0.8-4.65,0.02-6.96c1.15-3.21,3.84-5.09,7.3-5.15c1.43-0.03,2.8,0.21,4.07,0.88
		c2.04,1.09,3.25,2.82,3.87,5.01C522.88,657.85,522.98,658.79,522.97,659.75z M519.35,659.73c-0.02-1.2-0.18-2.38-0.76-3.46
		c-1.16-2.19-4.14-2.89-6.17-1.46c-0.83,0.59-1.34,1.42-1.64,2.38c-0.48,1.57-0.52,3.15-0.08,4.73c0.57,2.06,2.06,3.52,4.65,3.3
		c1.47-0.13,2.54-0.86,3.24-2.14C519.16,662.04,519.33,660.9,519.35,659.73z"/>
	<path class="st43" d="M434.82,667.97c-4.62,0-9.25,0-13.94,0c0-0.44,0-0.86,0-1.28c0-0.38,0.02-0.75-0.01-1.13
		c-0.02-0.32,0.09-0.55,0.29-0.79c2.77-3.28,5.53-6.57,8.29-9.86c0.11-0.13,0.21-0.27,0.38-0.48c-2.79,0-5.49,0-8.22,0
		c0-1.05,0-2.05,0-3.08c4.33,0,8.63,0,12.96,0c0.01,0.16,0.03,0.3,0.03,0.44c0,0.7-0.01,1.4,0.01,2.11
		c0.01,0.28-0.07,0.49-0.26,0.71c-2.78,3.27-5.56,6.55-8.34,9.82c-0.1,0.12-0.21,0.25-0.3,0.37c0.02,0.03,0.02,0.05,0.03,0.06
		c0.01,0.01,0.02,0.02,0.03,0.03c0.03,0.01,0.06,0.01,0.1,0.01c2.96,0.01,5.91,0.01,8.87,0.02c0.02,0,0.03,0.01,0.05,0.01
		C434.89,665.27,434.91,667.36,434.82,667.97z"/>
	<path class="st43" d="M343.53,651.38c0,1,0,2,0,3.04c-2.7,0-5.38,0-8.09,0c0,1.23,0,2.43,0,3.69c0.61,0.04,1.23,0.01,1.84,0.02
		c0.6,0,1.21,0,1.81,0c0.62,0,1.24,0,1.86,0c0.6,0,1.2,0,1.84,0c0,1.02,0,2.01,0,3.07c-0.8,0.01-1.61,0-2.42,0
		c-0.82,0-1.63,0-2.45,0c-0.81,0-1.63,0-2.49,0c-0.06,1.24-0.01,2.44-0.03,3.68c2.79,0,5.52,0,8.33,0c0.01,1.05,0.01,2.05,0,3.09
		c-4,0-7.97,0-11.95,0c-0.01-0.15-0.03-0.27-0.03-0.4c0-1.85,0-3.69-0.01-5.54c0-0.26,0.07-0.46,0.24-0.66
		c0.49-0.57,0.97-1.15,1.47-1.75c-0.46-0.55-0.9-1.1-1.36-1.62c-0.26-0.29-0.35-0.58-0.35-0.97c0.02-1.7,0.01-3.4,0.01-5.1
		c0-0.18,0-0.36,0-0.53C332.11,651.3,342.93,651.27,343.53,651.38z"/>
	<path class="st43" d="M497.74,656.95c-1.21,0-2.34,0-3.46,0c-0.14-0.35-0.24-0.71-0.42-1.01c-0.65-1.1-1.63-1.73-2.91-1.82
		c-2.03-0.15-3.55,0.78-4.27,2.66c-0.72,1.9-0.74,3.84-0.02,5.75c0.46,1.22,1.29,2.11,2.56,2.52c0.75,0.24,1.51,0.25,2.28,0.11
		c1.15-0.21,1.93-0.92,2.39-1.97c0.22-0.5,0.35-1.04,0.53-1.6c1.1,0,2.24,0,3.44,0c-0.05,0.34-0.08,0.66-0.14,0.97
		c-0.62,3.35-3.17,5.55-6.58,5.7c-1.35,0.06-2.67-0.09-3.93-0.64c-2.05-0.9-3.41-2.43-4.13-4.53c-0.81-2.34-0.78-4.69,0.08-7.01
		c1.18-3.17,3.84-4.98,7.27-5.04c1.84-0.03,3.53,0.41,4.98,1.58C496.8,653.72,497.52,655.17,497.74,656.95z"/>
	<path class="st43" d="M389.26,668.01c-1.29,0-2.46,0-3.7,0c-1.46-4.05-2.93-8.13-4.4-12.2c-0.03,0-0.06,0-0.09,0
		c-1.46,4.06-2.93,8.12-4.4,12.19c-1.22,0-2.42,0-3.7,0c2.1-5.56,4.19-11.08,6.28-16.61c1.26,0,2.5,0,3.8,0
		C385.11,656.88,387.17,662.41,389.26,668.01z"/>
	<path class="st43" d="M449.1,651.38c1.25,0,2.48,0,3.77,0c2.06,5.51,4.13,11.03,6.21,16.61c-1.27,0-2.46,0-3.7,0
		c-0.72-2.01-1.46-4.05-2.19-6.09c-0.73-2.04-1.47-4.07-2.3-6.09c-1.46,4.06-2.93,8.12-4.4,12.19c-1.23,0-2.41,0-3.6,0
		c-0.01-0.02-0.02-0.03-0.03-0.04c-0.01-0.01-0.02-0.03-0.02-0.04c2.03-5.39,4.06-10.78,6.09-16.17
		C448.98,651.63,449.04,651.51,449.1,651.38z"/>
	<path class="st43" d="M354.33,651.37c1.18,0,2.36,0,3.58,0c0,4.5,0,8.97,0,13.49c0.57,0.07,1.1,0.03,1.63,0.03
		c0.54,0.01,1.08,0,1.62,0c0.54,0,1.08,0,1.62,0s1.08,0,1.62,0c0.53,0,1.07,0,1.63,0c0,1.04,0,2.03,0,3.02
		c-0.34,0.11-10.86,0.15-11.68,0.05C354.25,667.62,354.22,651.94,354.33,651.37z"/>
	<path class="st43" d="M473.36,667.97c-1.21,0-2.4,0-3.63,0c0-1.18,0-2.33,0-3.55c1.2-0.02,2.4-0.01,3.63-0.01
		C473.36,665.61,473.36,666.77,473.36,667.97z"/>
</g>
</svg>
