<?xml version="1.0" encoding="utf-8"?>
<!-- Generator: Adobe Illustrator 24.2.0, SVG Export Plug-In . SVG Version: 6.00 Build 0)  -->
<svg version="1.1" id="Layer_1" xmlns="http://www.w3.org/2000/svg" xmlns:xlink="http://www.w3.org/1999/xlink" x="0px" y="0px"
	 viewBox="0 0 218.64 50" style="enable-background:new 0 0 218.64 50;" xml:space="preserve">
<style type="text/css">
	.st0{fill:#FF7745;}
	.st1{fill:none;stroke:#000000;stroke-width:7.2174;stroke-linecap:round;stroke-linejoin:round;stroke-miterlimit:10;}
	.st2{fill:none;stroke:#000000;stroke-width:3.6087;stroke-linecap:round;stroke-linejoin:round;stroke-miterlimit:10;}
	.st3{fill:#020303;}
	.st4{fill:#FF7745;stroke:#FF7745;stroke-width:1.5;stroke-linecap:round;stroke-linejoin:round;stroke-miterlimit:10;}
	.st5{fill:#020303;stroke:#000000;stroke-miterlimit:10;}
	.st6{fill:none;stroke:#000000;stroke-width:2.5;stroke-linecap:round;stroke-linejoin:round;stroke-miterlimit:10;}
	.st7{fill:none;stroke:#FF7745;stroke-width:5;stroke-linecap:round;stroke-linejoin:round;stroke-miterlimit:10;}
</style>
<g>
	<g>
		<polygon points="7.41,21.18 8.76,22.54 10.13,21.16 8.75,19.78 7.41,21.13 6.05,19.77 4.68,21.15 6.06,22.52 		"/>
		<path d="M20.58,23.34c-0.1-0.35-0.22-0.69-0.35-1.03c-0.13-0.34-0.26-0.66-0.4-0.96l-2.04,1.01c0.14,0.27,0.28,0.56,0.42,0.86
			c0.14,0.3,0.26,0.59,0.37,0.87c0.11,0.28,0.2,0.53,0.26,0.76c0.07,0.23,0.1,0.4,0.1,0.51c0,0.17-0.02,0.3-0.06,0.39
			c-0.06,0.13-0.15,0.23-0.28,0.31c-0.13,0.08-0.28,0.14-0.45,0.18c-0.17,0.04-0.35,0.07-0.54,0.09c-0.19,0.01-0.38,0.02-0.55,0.02
			h-1.03c-0.31,0-0.58-0.04-0.83-0.12c-0.24-0.08-0.44-0.19-0.6-0.32c-0.16-0.14-0.27-0.3-0.33-0.48c-0.04-0.11-0.06-0.23-0.06-0.35
			c0-0.09,0.01-0.17,0.03-0.26l0.29-1.51l-2-0.51c-0.06,0.24-0.12,0.48-0.17,0.72s-0.13,0.47-0.23,0.68
			c-0.09,0.22-0.2,0.42-0.33,0.62c-0.13,0.19-0.29,0.37-0.49,0.54c-0.22,0.18-0.48,0.33-0.79,0.46c-0.31,0.13-0.65,0.23-1.03,0.31
			s-0.79,0.14-1.24,0.17c-0.45,0.04-0.92,0.05-1.42,0.05c-0.54,0-1.07-0.02-1.59-0.06c-0.52-0.04-0.99-0.11-1.43-0.2
			c-0.43-0.09-0.8-0.21-1.11-0.35c-0.31-0.14-0.52-0.32-0.64-0.52C2,24.96,1.97,24.72,1.97,24.5c0-0.01-0.01-0.02-0.01-0.03
			c0-0.21,0.02-0.4,0.06-0.58c0.04-0.19,0.1-0.37,0.19-0.55c0.08-0.18,0.17-0.36,0.26-0.54l-1.7-0.99
			c-0.24,0.47-0.42,0.92-0.55,1.35c-0.13,0.44-0.2,0.85-0.23,1.23C0,24.51,0,24.6,0,24.7c0,0.28,0.02,0.54,0.07,0.78
			c0.07,0.33,0.17,0.62,0.32,0.88c0.24,0.38,0.57,0.72,0.98,1c0.42,0.28,0.91,0.52,1.46,0.71c0.56,0.19,1.17,0.33,1.85,0.42
			c0.68,0.09,1.4,0.14,2.15,0.15c1.28,0,2.4-0.14,3.36-0.41c0.96-0.28,1.78-0.7,2.45-1.28c0.34,0.6,0.79,1.03,1.33,1.28
			c0.54,0.26,1.21,0.38,1.99,0.38h0.04h0.02h1.02c0.23,0,0.47-0.01,0.74-0.03c0.26-0.02,0.54-0.07,0.82-0.15
			c0.49-0.14,0.9-0.35,1.25-0.65c0.35-0.29,0.62-0.66,0.82-1.11c0.17-0.4,0.26-0.84,0.26-1.32c0-0.31-0.03-0.64-0.1-0.99
			C20.77,24.03,20.69,23.68,20.58,23.34z"/>
		<rect x="17" y="29.72" transform="matrix(0.7073 -0.7069 0.7069 0.7073 -16.4997 21.8403)" width="2.24" height="2.24"/>
		<polygon points="26.31,20.75 26.31,20.74 26.31,20.74 		"/>
		<polygon points="28.03,17.48 29.38,18.84 30.75,17.46 29.37,16.08 28.03,17.42 26.67,16.07 25.3,17.44 26.68,18.82 		"/>
		<path d="M31.16,26.47c0.19-0.36,0.32-0.78,0.38-1.28c0.01-0.1,0.02-0.2,0.02-0.3c0.01-0.11,0.01-0.22,0.01-0.33
			c0-0.36-0.03-0.72-0.1-1.08c-0.06-0.36-0.15-0.7-0.27-1.04c-0.12-0.33-0.26-0.65-0.42-0.94c-0.16-0.29-0.35-0.56-0.55-0.79
			c-0.29-0.3-0.6-0.54-0.96-0.71c-0.35-0.18-0.71-0.26-1.07-0.26c-0.36,0-0.7,0.08-1.02,0.25c-0.32,0.17-0.61,0.42-0.86,0.76
			c-0.43,0.53-0.71,1.2-0.86,2c-0.03,0.19-0.04,0.38-0.04,0.6c0,0.4,0.06,0.74,0.17,1.01c0.11,0.27,0.23,0.49,0.36,0.65v-0.01
			c0.12,0.15,0.29,0.29,0.52,0.4c0.23,0.12,0.5,0.21,0.82,0.27c0.32,0.07,0.68,0.11,1.09,0.11c0.08,0,0.15,0.01,0.23,0.01
			c0.34,0,0.71-0.02,1.1-0.06c-0.13,0.08-0.31,0.16-0.53,0.22c-0.23,0.06-0.48,0.12-0.76,0.17c-0.28,0.05-0.57,0.08-0.88,0.11
			c-0.31,0.03-0.61,0.05-0.9,0.07c-0.3,0.02-0.57,0.03-0.83,0.04c-0.22,0.01-0.41,0.01-0.57,0.01c-0.02,0-0.04-0.01-0.06-0.01h-0.06
			c-0.12,0-0.24,0-0.34-0.01c-0.1,0-0.2-0.02-0.28-0.05c-0.09-0.03-0.16-0.07-0.22-0.12c-0.06-0.06-0.12-0.14-0.16-0.25
			c-0.11-0.29-0.17-0.59-0.19-0.9c-0.01-0.16-0.02-0.33-0.02-0.49c0-0.15,0-0.3,0.01-0.46c0.02-0.32,0.05-0.66,0.08-1
			c0.02-0.29,0.04-0.59,0.04-0.9v-0.14c0-0.4-0.01-0.84-0.02-1.31c-0.01-0.47-0.03-0.94-0.06-1.41c-0.03-0.47-0.06-0.91-0.1-1.34
			c-0.04-0.43-0.09-0.8-0.15-1.11l-2.13,0.65c0.07,0.37,0.13,0.8,0.17,1.29c0.04,0.49,0.07,1.01,0.09,1.54
			c0.02,0.54,0.03,1.07,0.04,1.61c0,0.54,0.01,1.03,0.01,1.48s0,0.84-0.01,1.17c-0.01,0.33-0.01,0.58-0.02,0.76v0.11
			c0,0.13,0,0.28,0.01,0.46c0.01,0.18,0.03,0.37,0.08,0.57s0.12,0.41,0.22,0.62c0.1,0.21,0.25,0.41,0.44,0.6
			c0.3,0.3,0.67,0.52,1.08,0.67c0.39,0.14,0.86,0.2,1.39,0.21c0.03,0,0.05,0.01,0.08,0.01h0.12c0.49,0,0.99-0.02,1.47-0.06
			c0.49-0.03,0.96-0.1,1.4-0.18c0.45-0.09,0.87-0.21,1.26-0.37s0.74-0.36,1.04-0.61C30.71,27.13,30.96,26.83,31.16,26.47z
			 M29.21,23.91H28.8c-0.15-0.01-0.3-0.02-0.46-0.03c-0.16-0.02-0.31-0.04-0.45-0.06c-0.14-0.03-0.26-0.06-0.36-0.1
			c-0.1-0.04-0.17-0.09-0.2-0.15c-0.06-0.1-0.09-0.22-0.09-0.36c0-0.15,0.03-0.3,0.09-0.45c0.06-0.15,0.14-0.28,0.23-0.39
			c0.09-0.11,0.2-0.21,0.31-0.28c0.1-0.06,0.2-0.09,0.31-0.09h0.02c0.19,0.01,0.35,0.07,0.49,0.19c0.14,0.12,0.27,0.27,0.37,0.45
			c0.1,0.18,0.19,0.38,0.26,0.6c0.07,0.22,0.12,0.44,0.17,0.65C29.42,23.9,29.33,23.9,29.21,23.91z"/>
		<path d="M36.15,26.25c-0.04-0.23-0.1-0.46-0.15-0.69c-0.06-0.23-0.11-0.45-0.17-0.67c-0.13-0.49-0.29-0.99-0.47-1.51l-2.06,0.94
			c0.15,0.34,0.29,0.66,0.41,0.97c0.13,0.3,0.24,0.59,0.33,0.86c0.09,0.27,0.17,0.52,0.22,0.75c0.06,0.23,0.08,0.45,0.08,0.65
			c0,0.27-0.06,0.56-0.18,0.84c-0.12,0.29-0.28,0.57-0.49,0.85c-0.21,0.28-0.45,0.56-0.73,0.83c-0.28,0.27-0.58,0.53-0.9,0.78
			c-0.32,0.25-0.66,0.48-1.01,0.7c-0.35,0.22-0.7,0.41-1.04,0.58l1.3,1.81c0.45-0.22,0.89-0.48,1.31-0.75
			c0.42-0.28,0.82-0.58,1.19-0.9c0.37-0.32,0.71-0.67,1.01-1.04c0.3-0.37,0.57-0.75,0.79-1.15c0.22-0.4,0.39-0.81,0.51-1.24
			c0.12-0.43,0.18-0.86,0.18-1.31c0-0.19-0.01-0.4-0.04-0.62C36.23,26.7,36.19,26.48,36.15,26.25z"/>
		<rect x="49.49" y="29.72" transform="matrix(0.7073 -0.7069 0.7069 0.7073 -6.9884 44.8102)" width="2.24" height="2.24"/>
		<path d="M53.08,23.34c-0.1-0.35-0.22-0.69-0.35-1.03c-0.13-0.34-0.26-0.66-0.4-0.96l-2.04,1.01c0.14,0.27,0.28,0.56,0.42,0.86
			c0.14,0.3,0.26,0.59,0.37,0.87c0.11,0.28,0.2,0.53,0.26,0.76c0.07,0.23,0.1,0.4,0.1,0.51c0,0.17-0.02,0.3-0.06,0.39
			c-0.06,0.13-0.15,0.23-0.28,0.31s-0.28,0.14-0.45,0.18c-0.17,0.04-0.35,0.07-0.54,0.09c-0.19,0.01-0.38,0.02-0.55,0.02h-1.01
			c-0.19,0-0.35-0.04-0.47-0.11c-0.12-0.07-0.22-0.16-0.3-0.27c-0.07-0.11-0.13-0.21-0.16-0.33c-0.04-0.11-0.06-0.21-0.08-0.29v0.03
			c-0.01-0.45-0.03-0.91-0.05-1.39c-0.02-0.48-0.03-0.96-0.05-1.44c-0.02-0.48-0.03-0.96-0.05-1.43c-0.02-0.47-0.03-0.91-0.05-1.33
			c-0.02-0.49-0.04-0.98-0.06-1.47c-0.02-0.48-0.04-0.96-0.06-1.44l-2.28,0.53c0.07,0.75,0.13,1.48,0.18,2.19
			c0.06,0.71,0.11,1.41,0.16,2.1c0.04,0.59,0.09,1.18,0.13,1.8c0.04,0.61,0.08,1.21,0.11,1.79c0.03,0.58,0.06,1.12,0.08,1.63
			c0.02,0.51,0.03,0.96,0.03,1.33c0,0.33-0.05,0.63-0.15,0.9c-0.1,0.27-0.23,0.5-0.4,0.71s-0.36,0.38-0.57,0.53
			c-0.21,0.15-0.44,0.27-0.67,0.36c-0.23,0.1-0.47,0.16-0.7,0.21c-0.23,0.05-0.45,0.07-0.66,0.07h-0.09c-0.03,0-0.06,0-0.1-0.01
			c-0.14-0.01-0.3-0.04-0.48-0.09c-0.18-0.05-0.36-0.12-0.54-0.21c-0.18-0.09-0.36-0.2-0.54-0.33c-0.18-0.13-0.33-0.28-0.47-0.46
			c-0.14-0.18-0.26-0.37-0.35-0.6c-0.09-0.22-0.14-0.47-0.16-0.73c0-0.06-0.01-0.12-0.01-0.18c0-0.26,0.03-0.52,0.09-0.76
			c0.06-0.3,0.14-0.57,0.22-0.81c0.05-0.14,0.11-0.27,0.16-0.4c0.06-0.13,0.12-0.25,0.19-0.37l-1.8-0.86
			c-0.15,0.28-0.29,0.6-0.41,0.95c-0.1,0.31-0.2,0.69-0.28,1.11c-0.08,0.4-0.12,0.87-0.12,1.39v0.08c0,0.52,0.07,1,0.21,1.42
			c0.13,0.42,0.31,0.8,0.53,1.12c0.22,0.33,0.48,0.61,0.77,0.85s0.6,0.44,0.93,0.59c0.33,0.16,0.66,0.28,1,0.37
			c0.34,0.09,0.67,0.14,0.99,0.17h-0.01c0.04,0,0.09,0.01,0.14,0.01h0.15c0.34,0,0.69-0.04,1.07-0.11c0.38-0.07,0.75-0.18,1.12-0.34
			c0.37-0.15,0.72-0.36,1.06-0.6c0.34-0.25,0.63-0.55,0.89-0.9c0.26-0.36,0.47-0.77,0.63-1.24s0.25-1.01,0.27-1.61
			c0.13,0.04,0.28,0.07,0.43,0.09c0.12,0.01,0.27,0.02,0.41,0.02c0.02,0,0.04,0.01,0.07,0.01h1.04c0.23,0,0.47-0.01,0.74-0.03
			c0.26-0.02,0.54-0.07,0.82-0.15c0.49-0.14,0.9-0.35,1.25-0.65c0.35-0.29,0.62-0.66,0.82-1.11c0.17-0.4,0.26-0.84,0.26-1.32
			c0-0.31-0.03-0.64-0.1-0.99C53.27,24.03,53.18,23.68,53.08,23.34z"/>
		<polygon points="60.52,17.48 61.87,18.84 63.24,17.46 61.86,16.08 60.52,17.42 59.16,16.07 57.79,17.44 59.18,18.82 		"/>
		<path d="M63.69,22.44c-0.12-0.33-0.26-0.65-0.42-0.94c-0.16-0.29-0.35-0.56-0.55-0.79c-0.29-0.3-0.6-0.54-0.96-0.71
			c-0.35-0.18-0.71-0.26-1.07-0.26c-0.36,0-0.7,0.08-1.02,0.25c-0.32,0.17-0.61,0.42-0.86,0.76c-0.43,0.53-0.71,1.2-0.86,2
			c-0.03,0.19-0.04,0.38-0.04,0.6c0,0.4,0.06,0.74,0.17,1.01c0.11,0.27,0.23,0.49,0.36,0.65v-0.01c0.12,0.15,0.29,0.29,0.52,0.4
			c0.23,0.12,0.5,0.21,0.82,0.27c0.32,0.07,0.68,0.11,1.09,0.11c0.08,0,0.15,0.01,0.23,0.01c0.34,0,0.71-0.02,1.1-0.06
			c-0.13,0.08-0.31,0.16-0.53,0.22c-0.23,0.06-0.48,0.12-0.76,0.17c-0.28,0.05-0.57,0.08-0.88,0.11c-0.31,0.03-0.61,0.05-0.9,0.07
			c-0.3,0.02-0.57,0.03-0.83,0.04c-0.22,0.01-0.41,0.01-0.57,0.01c-0.02,0-0.04-0.01-0.06-0.01h-0.06c-0.12,0-0.24,0-0.34-0.01
			c-0.1,0-0.2-0.02-0.28-0.05c-0.09-0.03-0.16-0.07-0.22-0.12c-0.06-0.06-0.12-0.14-0.16-0.25c-0.11-0.29-0.17-0.59-0.19-0.9
			c-0.01-0.16-0.02-0.33-0.02-0.49c0-0.15,0-0.3,0.01-0.46c0.02-0.32,0.05-0.66,0.08-1c0.02-0.29,0.04-0.59,0.04-0.9v-0.14
			c0-0.4-0.01-0.84-0.02-1.31c-0.01-0.47-0.03-0.94-0.06-1.41c-0.03-0.47-0.06-0.91-0.1-1.34c-0.04-0.43-0.09-0.8-0.15-1.11
			l-2.13,0.65c0.07,0.37,0.13,0.8,0.17,1.29c0.04,0.49,0.07,1.01,0.09,1.54s0.03,1.07,0.04,1.61c0,0.54,0.01,1.03,0.01,1.48
			s0,0.84-0.01,1.17c-0.01,0.33-0.01,0.58-0.02,0.76v0.11c0,0.13,0,0.28,0.01,0.46c0.01,0.18,0.03,0.37,0.08,0.57
			s0.12,0.41,0.22,0.62c0.1,0.21,0.25,0.41,0.44,0.6c0.3,0.3,0.67,0.52,1.08,0.67c0.39,0.14,0.86,0.2,1.39,0.21
			c0.03,0,0.05,0.01,0.08,0.01h0.12c0.49,0,0.99-0.02,1.47-0.06c0.49-0.03,0.96-0.1,1.4-0.18c0.45-0.09,0.87-0.21,1.26-0.37
			s0.74-0.36,1.04-0.61c0.3-0.25,0.55-0.56,0.75-0.92c0.19-0.36,0.32-0.78,0.38-1.28c0.01-0.1,0.02-0.2,0.02-0.3
			c0.01-0.11,0.01-0.22,0.01-0.33c0-0.36-0.03-0.72-0.1-1.08C63.9,23.12,63.81,22.77,63.69,22.44z M61.7,23.91H61.3
			c-0.15-0.01-0.3-0.02-0.46-0.03c-0.16-0.02-0.31-0.04-0.45-0.06c-0.14-0.03-0.26-0.06-0.36-0.1c-0.1-0.04-0.17-0.09-0.2-0.15
			c-0.06-0.1-0.09-0.22-0.09-0.36c0-0.15,0.03-0.3,0.09-0.45c0.06-0.15,0.14-0.28,0.23-0.39c0.09-0.11,0.2-0.21,0.31-0.28
			c0.1-0.06,0.2-0.09,0.31-0.09h0.02c0.19,0.01,0.35,0.07,0.49,0.19s0.27,0.27,0.37,0.45c0.1,0.18,0.19,0.38,0.26,0.6
			c0.07,0.22,0.12,0.44,0.17,0.65C61.91,23.9,61.82,23.9,61.7,23.91z"/>
		<polygon points="58.8,20.75 58.81,20.74 58.81,20.74 		"/>
		<path d="M72.69,24.65c-0.13-0.36-0.28-0.7-0.46-1.02c-0.18-0.32-0.38-0.61-0.61-0.86c-0.65-0.7-1.37-1.06-2.18-1.06
			c-0.38,0-0.73,0.09-1.07,0.27c-0.34,0.18-0.65,0.45-0.94,0.81c-0.13,0.18-0.26,0.38-0.37,0.6c-0.12,0.22-0.22,0.45-0.3,0.7
			c-0.09,0.25-0.15,0.5-0.2,0.76c-0.05,0.26-0.07,0.52-0.07,0.77c0,0.33,0.04,0.65,0.12,0.95c0.08,0.3,0.22,0.58,0.42,0.84
			c0.27,0.34,0.63,0.6,1.09,0.8c0.46,0.2,0.96,0.32,1.51,0.37c0.15,0.01,0.34,0.02,0.56,0.03c0.23,0.01,0.45,0.01,0.65,0.01
			c-0.11,0.29-0.31,0.58-0.58,0.86c-0.27,0.28-0.62,0.55-1.03,0.8c-0.42,0.25-0.9,0.48-1.45,0.68c-0.55,0.2-1.16,0.37-1.83,0.5
			l0.53,2.19c0.55-0.09,1.09-0.21,1.61-0.38s1.02-0.38,1.49-0.64c0.47-0.25,0.9-0.55,1.3-0.88c0.4-0.34,0.75-0.71,1.05-1.12
			c0.3-0.41,0.55-0.86,0.74-1.35s0.32-1.01,0.37-1.57c0.01-0.11,0.02-0.23,0.02-0.35c0.01-0.12,0.01-0.25,0.01-0.37
			c0-0.4-0.03-0.8-0.1-1.2C72.91,25.38,72.81,25.01,72.69,24.65z M70.91,26.35h-0.06c-0.02,0-0.04,0-0.07,0c-0.03,0-0.06,0-0.11,0
			c-0.15,0-0.31,0-0.47,0c-0.16,0-0.3-0.01-0.42-0.02h0.01c-0.16-0.01-0.32-0.04-0.49-0.07c-0.17-0.03-0.32-0.08-0.46-0.15
			c-0.14-0.07-0.26-0.15-0.35-0.26c-0.09-0.1-0.14-0.23-0.14-0.39c0-0.17,0.04-0.34,0.11-0.52c0.07-0.18,0.17-0.35,0.28-0.5
			c0.11-0.15,0.23-0.27,0.36-0.36c0.1-0.07,0.19-0.11,0.28-0.11c0.02,0,0.04,0,0.06,0.01c0.2,0.04,0.38,0.13,0.54,0.27
			c0.16,0.14,0.31,0.32,0.44,0.53c0.13,0.21,0.24,0.46,0.34,0.73c0.1,0.27,0.18,0.55,0.25,0.84C70.96,26.35,70.93,26.35,70.91,26.35
			z"/>
		<rect x="80.97" y="29.62" transform="matrix(0.7073 -0.7069 0.7069 0.7073 2.295 67.0298)" width="2.24" height="2.24"/>
		<path d="M102.36,23.79c-0.08-0.29-0.17-0.58-0.27-0.85c-0.1-0.27-0.19-0.52-0.28-0.74c-0.09-0.22-0.17-0.41-0.24-0.56
			s-0.12-0.26-0.15-0.33l-1.77,0.99c0.09,0.18,0.19,0.4,0.32,0.66c0.13,0.26,0.25,0.54,0.36,0.83c0.11,0.29,0.21,0.59,0.29,0.88
			c0.08,0.3,0.12,0.57,0.12,0.82c0,0.14-0.03,0.27-0.1,0.38c-0.07,0.11-0.16,0.21-0.27,0.3c-0.11,0.08-0.23,0.15-0.37,0.19
			s-0.27,0.07-0.41,0.07c-0.22,0-0.39-0.06-0.51-0.17c-0.12-0.11-0.21-0.26-0.26-0.45c-0.05-0.18-0.08-0.39-0.08-0.62
			c0-0.23,0.01-0.46,0.04-0.69s0.05-0.45,0.08-0.66s0.05-0.38,0.05-0.53l-1.81-0.31c-0.03,0.2-0.07,0.42-0.11,0.66
			c-0.05,0.24-0.1,0.49-0.17,0.73c-0.07,0.25-0.15,0.49-0.25,0.72c-0.1,0.23-0.2,0.44-0.33,0.63c-0.12,0.18-0.26,0.34-0.42,0.46
			s-0.33,0.19-0.52,0.2c-0.03,0-0.05,0.01-0.08,0.01c-0.11,0-0.19-0.04-0.25-0.12c-0.07-0.1-0.11-0.23-0.13-0.4
			c-0.01-0.06-0.01-0.13-0.01-0.2c0-0.12,0.01-0.26,0.03-0.4c0.03-0.22,0.07-0.45,0.11-0.69c0.05-0.24,0.1-0.47,0.15-0.69
			c0.06-0.22,0.1-0.42,0.14-0.58L93.36,23c-0.11,0.42-0.23,0.83-0.35,1.23c-0.12,0.4-0.27,0.76-0.45,1.07
			c-0.18,0.32-0.39,0.57-0.63,0.76c-0.24,0.19-0.55,0.29-0.9,0.29c0,0,0,0,0,0c0,0,0,0-0.01,0c-0.31,0-0.58-0.04-0.83-0.12
			c-0.24-0.08-0.44-0.19-0.6-0.32c-0.16-0.14-0.27-0.3-0.33-0.48c-0.04-0.11-0.06-0.23-0.06-0.35c0-0.09,0.01-0.17,0.03-0.26
			l0.29-1.51l-2-0.51c-0.06,0.24-0.12,0.48-0.17,0.72c-0.06,0.24-0.13,0.47-0.22,0.68c-0.09,0.22-0.2,0.42-0.33,0.62
			c-0.13,0.19-0.29,0.37-0.49,0.54c-0.22,0.18-0.48,0.33-0.79,0.46c-0.31,0.13-0.65,0.23-1.03,0.31c-0.38,0.08-0.79,0.14-1.24,0.17
			c-0.45,0.04-0.92,0.05-1.42,0.05c-0.54,0-1.07-0.02-1.59-0.06c-0.52-0.04-0.99-0.11-1.43-0.2c-0.43-0.09-0.8-0.21-1.11-0.35
			c-0.31-0.14-0.52-0.32-0.64-0.52c-0.07-0.26-0.11-0.5-0.11-0.72c-0.01-0.01-0.01-0.02-0.01-0.03c0-0.21,0.02-0.4,0.06-0.58
			c0.04-0.19,0.1-0.37,0.19-0.55c0.08-0.18,0.17-0.36,0.26-0.54l-1.7-0.99c-0.24,0.47-0.42,0.92-0.55,1.35s-0.2,0.85-0.22,1.23
			c-0.01,0.1-0.01,0.2-0.01,0.3c0,0.28,0.02,0.54,0.07,0.78c0.07,0.33,0.17,0.62,0.32,0.88c0.24,0.38,0.57,0.72,0.98,1
			c0.42,0.28,0.91,0.52,1.46,0.71c0.56,0.19,1.17,0.33,1.85,0.42c0.68,0.09,1.4,0.14,2.15,0.15c1.28,0,2.4-0.14,3.36-0.41
			c0.96-0.28,1.78-0.7,2.45-1.28c0.34,0.6,0.79,1.03,1.33,1.28c0.54,0.26,1.21,0.38,1.99,0.38H91c0.01,0,0.02,0.01,0.03,0.01h0.13
			c0.31,0,0.58-0.02,0.81-0.07s0.44-0.11,0.61-0.19c0.18-0.08,0.33-0.18,0.46-0.28c0.13-0.11,0.24-0.22,0.34-0.34
			c0.11,0.15,0.23,0.28,0.35,0.4c0.13,0.12,0.27,0.22,0.42,0.31c0.16,0.08,0.33,0.15,0.52,0.19c0.17,0.04,0.35,0.06,0.56,0.06h0.06
			c0.27,0,0.5-0.03,0.71-0.08c0.21-0.05,0.4-0.11,0.57-0.2c0.17-0.08,0.32-0.18,0.45-0.3c0.13-0.12,0.25-0.25,0.37-0.4
			c0.1,0.13,0.22,0.26,0.35,0.38c0.13,0.12,0.28,0.22,0.45,0.31c0.17,0.09,0.35,0.16,0.56,0.21c0.21,0.05,0.44,0.07,0.7,0.07
			c0.53,0,1-0.08,1.4-0.23c0.4-0.15,0.73-0.36,0.99-0.62c0.26-0.27,0.46-0.59,0.59-0.97c0.13-0.38,0.2-0.81,0.2-1.28
			c0-0.29-0.03-0.59-0.08-0.9C102.5,24.38,102.44,24.08,102.36,23.79z"/>
		<rect x="108.24" y="19.08" transform="matrix(0.7071 -0.7071 0.7071 0.7071 17.7475 83.2428)" width="2.24" height="2.24"/>
		<path d="M119.59,24.83c-0.04-0.37-0.13-0.72-0.26-1.05c-0.13-0.33-0.31-0.62-0.52-0.88c-0.29-0.33-0.6-0.58-0.95-0.76
			c-0.35-0.18-0.74-0.26-1.17-0.26c-0.36,0-0.7,0.08-1.02,0.25c-0.32,0.16-0.61,0.4-0.86,0.7c-0.17,0.21-0.32,0.45-0.46,0.7
			c-0.14,0.25-0.27,0.51-0.4,0.76v-0.01c-0.13,0.25-0.26,0.49-0.41,0.74c-0.14,0.25-0.3,0.47-0.49,0.67
			c-0.18,0.2-0.39,0.36-0.62,0.48s-0.51,0.19-0.83,0.19c-0.16,0-0.29-0.04-0.39-0.12c-0.1-0.08-0.18-0.19-0.24-0.31
			c-0.06-0.13-0.1-0.26-0.13-0.41c-0.03-0.15-0.04-0.29-0.04-0.43c0-0.42-0.04-0.81-0.11-1.16c-0.08-0.35-0.16-0.67-0.26-0.96
			l-2.03,0.49c0.09,0.3,0.16,0.54,0.2,0.72c0.05,0.17,0.08,0.31,0.1,0.42c0.01,0.1,0.02,0.17,0.02,0.23v0.03
			c0,0.07-0.01,0.14-0.01,0.23c0,0.43-0.17,0.76-0.51,0.97c-0.34,0.21-0.84,0.32-1.5,0.32h-0.04c-0.02,0-0.05-0.01-0.07-0.01h-0.06
			c-0.12,0-0.24,0-0.34-0.01c-0.1,0-0.2-0.02-0.28-0.05c-0.09-0.03-0.16-0.07-0.22-0.12c-0.06-0.06-0.12-0.14-0.16-0.25
			c-0.11-0.29-0.17-0.59-0.19-0.9c-0.01-0.16-0.02-0.33-0.02-0.49c0-0.15,0-0.3,0.01-0.46c0.02-0.32,0.05-0.66,0.08-1
			c0.02-0.29,0.04-0.59,0.04-0.9v-0.14c0-0.4-0.01-0.84-0.02-1.31c-0.01-0.47-0.03-0.94-0.06-1.41c-0.03-0.47-0.06-0.91-0.1-1.34
			c-0.04-0.43-0.09-0.8-0.15-1.11l-2.13,0.65c0.07,0.37,0.13,0.8,0.17,1.29c0.04,0.49,0.07,1.01,0.09,1.54s0.03,1.07,0.04,1.61
			c0,0.54,0.01,1.03,0.01,1.48s0,0.84-0.01,1.17c-0.01,0.33-0.01,0.58-0.02,0.76v0.11c0,0.13,0,0.28,0.01,0.46
			c0.01,0.18,0.03,0.37,0.08,0.57c0.05,0.2,0.12,0.41,0.22,0.62c0.1,0.21,0.25,0.41,0.44,0.6c0.3,0.3,0.67,0.52,1.08,0.67
			c0.41,0.14,0.89,0.21,1.46,0.22c0.01,0,0.02,0,0.04,0h0.12c0.65,0,1.21-0.06,1.68-0.18c0.47-0.12,0.88-0.3,1.22-0.55
			c0.23,0.22,0.51,0.39,0.84,0.52c0.32,0.13,0.71,0.2,1.17,0.2c0,0,0,0,0,0c0,0,0,0,0,0c0,0,0,0,0,0c0.08,0,0.16-0.01,0.23-0.02
			c0.19-0.01,0.38-0.02,0.54-0.06c0.24-0.06,0.46-0.13,0.67-0.23c0.21-0.1,0.41-0.22,0.6-0.36c0.19-0.14,0.38-0.3,0.57-0.48
			c0.11,0.07,0.23,0.15,0.36,0.22s0.26,0.15,0.39,0.22c0.13,0.07,0.26,0.14,0.37,0.2c0.12,0.06,0.23,0.11,0.32,0.15
			c0.23,0.09,0.47,0.16,0.71,0.21c0.24,0.05,0.47,0.08,0.68,0.08c0.12,0,0.24-0.01,0.35-0.02c0.11-0.01,0.22-0.03,0.34-0.07
			c0.34-0.1,0.66-0.28,0.95-0.55c0.29-0.27,0.52-0.6,0.67-1c0.08-0.22,0.14-0.45,0.19-0.7c0.05-0.25,0.07-0.5,0.07-0.75
			c0-0.24-0.01-0.45-0.04-0.63V24.83z M117.91,26.13c-0.06,0.13-0.11,0.21-0.17,0.22c-0.02,0-0.05,0.01-0.07,0.01
			c-0.02,0-0.04,0-0.06,0c-0.09,0-0.21-0.02-0.38-0.07c-0.17-0.04-0.35-0.1-0.55-0.18s-0.4-0.15-0.6-0.24
			c-0.2-0.09-0.38-0.18-0.52-0.28l0.22-0.46v0.01c0.2-0.38,0.35-0.66,0.46-0.85c0.1-0.19,0.19-0.29,0.26-0.29
			c0.19,0,0.37,0.05,0.55,0.16c0.18,0.11,0.34,0.24,0.47,0.4c0.14,0.16,0.25,0.33,0.34,0.51c0.09,0.18,0.13,0.35,0.13,0.5
			c0,0.05,0.01,0.09,0.01,0.14C117.98,25.9,117.95,26.03,117.91,26.13z"/>
		<polygon points="128.84,21.18 130.19,22.54 131.56,21.16 130.18,19.78 128.84,21.13 127.48,19.77 126.11,21.15 127.49,22.52 		"/>
		<polygon points="148.85,31.14 147.49,29.78 146.12,31.16 147.51,32.53 148.85,31.19 150.2,32.55 151.57,31.17 150.19,29.8 		"/>
		<path d="M158.38,23.48c-0.06-0.36-0.15-0.7-0.27-1.04c-0.12-0.33-0.26-0.65-0.42-0.94c-0.16-0.29-0.35-0.56-0.55-0.79
			c-0.29-0.3-0.6-0.54-0.96-0.71c-0.35-0.18-0.71-0.26-1.07-0.26c-0.36,0-0.7,0.08-1.02,0.25c-0.32,0.17-0.61,0.42-0.86,0.76
			c-0.43,0.53-0.71,1.2-0.86,2c-0.03,0.19-0.04,0.38-0.04,0.6c0,0.4,0.06,0.74,0.17,1.01c0.11,0.27,0.23,0.49,0.36,0.65v-0.01
			c0.12,0.15,0.29,0.29,0.52,0.4c0.23,0.12,0.5,0.21,0.82,0.27c0.32,0.07,0.68,0.11,1.09,0.11c0.08,0,0.15,0.01,0.23,0.01
			c0.34,0,0.71-0.02,1.1-0.06c-0.13,0.08-0.31,0.16-0.53,0.22c-0.23,0.06-0.48,0.12-0.76,0.17c-0.28,0.05-0.57,0.08-0.88,0.11
			c-0.31,0.03-0.61,0.05-0.9,0.07c-0.3,0.02-0.57,0.03-0.83,0.04c-0.26,0.01-0.48,0.01-0.65,0.01c-0.01,0-0.02,0-0.02,0
			c-0.01,0-0.02,0-0.02,0c-0.15,0-0.28-0.04-0.37-0.12s-0.17-0.19-0.22-0.32c-0.05-0.13-0.09-0.27-0.12-0.42
			c-0.02-0.15-0.04-0.3-0.05-0.44c-0.04-0.45-0.1-0.86-0.17-1.24c-0.08-0.38-0.16-0.68-0.25-0.91l-2.08,0.58
			c0.08,0.29,0.14,0.52,0.19,0.67c0.05,0.16,0.08,0.29,0.1,0.38c0.02,0.1,0.04,0.18,0.04,0.25v0.08c0,0.05,0,0.11-0.01,0.19
			c-0.01,0.28-0.09,0.51-0.24,0.67c-0.15,0.17-0.35,0.3-0.59,0.39c-0.24,0.09-0.52,0.15-0.84,0.18c-0.32,0.03-0.65,0.04-0.99,0.04
			h-0.54c0,0-0.01,0-0.01,0c0,0,0,0,0,0c-0.12,0-0.23-0.07-0.33-0.22c-0.07-0.12-0.13-0.28-0.19-0.48c-0.06-0.24-0.09-0.47-0.1-0.71
			c0-0.04,0-0.07-0.01-0.1l-0.01-0.06c-0.08-0.92-0.43-1.65-1.03-2.18c-0.54-0.47-1.16-0.7-1.86-0.7c-0.96,0-1.76,0.64-2.4,1.91
			l-0.1,0.2l-0.1,0.21c-0.09,0.18-0.16,0.32-0.21,0.43c-0.18,0.34-0.34,0.62-0.5,0.83c-0.42,0.56-0.91,0.84-1.46,0.87
			c-0.03,0-0.06-0.01-0.09-0.01c-0.31,0-0.58-0.04-0.83-0.12c-0.24-0.08-0.44-0.19-0.6-0.32c-0.16-0.14-0.27-0.3-0.33-0.48
			c-0.04-0.11-0.06-0.23-0.06-0.35c0-0.09,0.01-0.17,0.03-0.26l0.29-1.51l-2-0.51c-0.06,0.24-0.12,0.48-0.17,0.72
			c-0.06,0.24-0.13,0.47-0.23,0.68c-0.09,0.22-0.2,0.42-0.33,0.62c-0.13,0.19-0.29,0.37-0.49,0.54c-0.22,0.18-0.48,0.33-0.79,0.46
			c-0.31,0.13-0.65,0.23-1.03,0.31c-0.38,0.08-0.79,0.14-1.24,0.17c-0.45,0.04-0.92,0.05-1.42,0.05c-0.54,0-1.07-0.02-1.59-0.06
			c-0.52-0.04-0.99-0.11-1.43-0.2c-0.43-0.09-0.8-0.21-1.11-0.35c-0.31-0.14-0.52-0.32-0.64-0.52c-0.07-0.26-0.11-0.5-0.11-0.72
			c0-0.01-0.01-0.02-0.01-0.03c0-0.21,0.02-0.4,0.06-0.58c0.04-0.19,0.1-0.37,0.19-0.55c0.08-0.18,0.17-0.36,0.26-0.54l-1.7-0.99
			c-0.24,0.47-0.42,0.92-0.55,1.35c-0.13,0.44-0.2,0.85-0.23,1.23c0,0.1-0.01,0.2-0.01,0.3c0,0.28,0.02,0.54,0.07,0.78
			c0.07,0.33,0.17,0.62,0.32,0.88c0.24,0.38,0.57,0.72,0.98,1c0.42,0.28,0.91,0.52,1.46,0.71c0.56,0.19,1.17,0.33,1.85,0.42
			c0.68,0.09,1.4,0.14,2.15,0.15c1.28,0,2.4-0.14,3.36-0.41c0.96-0.28,1.78-0.7,2.45-1.28c0.34,0.6,0.79,1.03,1.33,1.28
			c0.54,0.25,1.2,0.38,1.98,0.38c0.03,0,0.05,0.01,0.08,0.01c0.43,0,0.82-0.06,1.17-0.17c0.28-0.09,0.52-0.22,0.74-0.38
			c0.24-0.19,0.41-0.37,0.49-0.55c1.33,0.7,2.35,1.06,3.05,1.06c0.6,0,1.1-0.2,1.49-0.59c0.37,0.41,0.86,0.61,1.46,0.61h0.01
			c0,0,0,0,0,0c0,0,0.01,0,0.01,0h0.54c0.32,0,0.65-0.01,0.98-0.04c0.33-0.03,0.66-0.07,0.97-0.13c0.31-0.06,0.61-0.14,0.89-0.23
			c0.28-0.1,0.52-0.21,0.74-0.36c0.23,0.22,0.51,0.41,0.84,0.55c0.33,0.14,0.72,0.21,1.17,0.21c0,0,0.01,0,0.01,0c0,0,0.01,0,0.01,0
			h0.12c0.49,0,0.99-0.02,1.47-0.06c0.49-0.03,0.96-0.1,1.4-0.18c0.45-0.09,0.87-0.21,1.26-0.37s0.74-0.36,1.04-0.61
			c0.3-0.25,0.55-0.56,0.75-0.92c0.19-0.36,0.32-0.78,0.38-1.28c0.01-0.1,0.02-0.2,0.02-0.3c0.01-0.11,0.01-0.22,0.01-0.33
			C158.48,24.2,158.45,23.84,158.38,23.48z M156.13,23.91h-0.41c-0.15-0.01-0.3-0.02-0.46-0.03c-0.16-0.02-0.31-0.04-0.45-0.06
			c-0.14-0.03-0.26-0.06-0.36-0.1c-0.1-0.04-0.17-0.09-0.2-0.15c-0.06-0.1-0.09-0.22-0.09-0.36c0-0.15,0.03-0.3,0.09-0.45
			c0.06-0.15,0.14-0.28,0.23-0.39c0.09-0.11,0.2-0.21,0.31-0.28c0.1-0.06,0.2-0.09,0.31-0.09h0.02c0.19,0.01,0.35,0.07,0.49,0.19
			s0.27,0.27,0.37,0.45c0.1,0.18,0.19,0.38,0.26,0.6c0.07,0.22,0.12,0.44,0.17,0.65C156.33,23.9,156.24,23.9,156.13,23.91z
			 M143.65,25.98c-0.03,0.36-0.12,0.55-0.27,0.59c-0.03,0-0.06,0.01-0.09,0.01c-0.33,0-1.04-0.31-2.12-0.93
			c0.41-0.97,0.72-1.5,0.93-1.58c0.04-0.01,0.08-0.02,0.12-0.02c0.14,0,0.33,0.08,0.56,0.23c0.3,0.2,0.52,0.44,0.67,0.71
			c0.14,0.25,0.21,0.53,0.21,0.83C143.66,25.87,143.66,25.92,143.65,25.98z"/>
		<polygon points="154.94,17.48 156.3,18.84 157.67,17.46 156.28,16.08 154.94,17.42 153.59,16.07 152.22,17.44 153.6,18.82 		"/>
		<polygon points="153.22,20.75 153.23,20.74 153.23,20.74 		"/>
	</g>
	<g>
		<circle class="st0" cx="182.06" cy="36.73" r="12.46"/>
		<g>
			<path d="M217.63,28.57L192.35,3.29c-0.8-0.8-1.93-1.16-3.05-0.96l-6.78,1.21c-0.41,0.07-0.69,0.47-0.61,0.88
				c0.07,0.41,0.47,0.69,0.88,0.61l6.78-1.21c0.62-0.11,1.26,0.09,1.71,0.54l22.18,22.18l-18.27,18.27l-1.5-1.5
				c1.02-1.84,1.6-3.95,1.6-6.2c0-7.1-5.78-12.88-12.88-12.88c-2.25,0-4.36,0.58-6.2,1.6l-3.2-3.2c-0.45-0.45-0.65-1.09-0.54-1.71
				l1.53-8.57c1.23,0.95,2.53,1.67,3.78,2.06c0.73,0.23,1.42,0.34,2.04,0.34c1.06,0,1.96-0.33,2.6-0.98c0.28-0.28,0.51-0.62,0.67-1
				c0.16-0.38-0.02-0.83-0.4-0.99c-0.38-0.16-0.83,0.02-0.99,0.4c-0.09,0.2-0.2,0.38-0.35,0.52c-1.09,1.09-4.13,0.44-7.05-2.08
				l0.52-2.89c0.14-0.79,0.77-1.42,1.56-1.56c0.41-0.07,0.69-0.47,0.61-0.88c-0.07-0.41-0.47-0.68-0.88-0.61
				c-1.41,0.25-2.53,1.37-2.79,2.79L173,9.35c-2.71-2.99-3.44-6.18-2.31-7.31c0.6-0.6,1.74-0.69,3.12-0.26
				c1.57,0.5,3.26,1.58,4.74,3.07c0.84,0.84,1.54,1.73,2.11,2.66c0.21,0.36,0.68,0.47,1.04,0.26c0.36-0.22,0.47-0.68,0.26-1.04
				c-0.62-1.03-1.41-2.03-2.33-2.95c-1.65-1.65-3.55-2.87-5.36-3.44c-1.97-0.62-3.62-0.39-4.65,0.63c-1.03,1.03-1.25,2.68-0.63,4.65
				c0.57,1.8,1.79,3.7,3.44,5.36c0.08,0.08,0.16,0.15,0.24,0.23l-1.69,9.46c-0.2,1.11,0.16,2.25,0.96,3.05l2.97,2.97
				c-3.25,2.34-5.38,6.15-5.38,10.45c0,7.1,5.78,12.88,12.88,12.88c4.3,0,8.11-2.13,10.45-5.38l4.37,4.37
				c0.67,0.67,1.56,1.01,2.44,1.01c0.88,0,1.77-0.34,2.44-1.01l15.54-15.54C218.98,32.11,218.98,29.92,217.63,28.57z M182.4,48.49
				c-6.27,0-11.36-5.1-11.36-11.36c0-6.27,5.1-11.36,11.36-11.36c6.27,0,11.36,5.1,11.36,11.36
				C193.76,43.39,188.67,48.49,182.4,48.49z M216.56,32.38l-15.54,15.54c-0.75,0.75-1.98,0.75-2.73,0l-2.03-2.03l18.27-18.27
				l2.03,2.03C217.31,30.4,217.31,31.63,216.56,32.38z"/>
			<path d="M180.95,15.66c-0.4-0.12-0.82,0.11-0.94,0.51c-0.12,0.4,0.11,0.82,0.51,0.94c0.39,0.11,0.79,0.17,1.19,0.17
				c1.1,0,2.18-0.43,2.98-1.23c1.64-1.64,1.64-4.31,0-5.95c-1.64-1.64-4.31-1.64-5.95,0c-0.17,0.17-0.33,0.36-0.47,0.55
				c-0.24,0.34-0.16,0.81,0.18,1.06c0.34,0.24,0.81,0.16,1.06-0.18c0.09-0.13,0.19-0.24,0.3-0.36c1.05-1.05,2.76-1.05,3.81,0
				c1.05,1.05,1.05,2.76,0,3.81C182.92,15.67,181.9,15.93,180.95,15.66z"/>
			<path d="M197.76,34.75c0.15,0.15,0.34,0.22,0.54,0.22c0.19,0,0.39-0.07,0.54-0.22l8.35-8.35c0.3-0.3,0.3-0.78,0-1.07
				c-0.3-0.3-0.78-0.3-1.07,0l-8.35,8.35C197.46,33.98,197.46,34.45,197.76,34.75z"/>
			<path d="M201.82,21.04l-6.33,6.33c-0.3,0.3-0.3,0.78,0,1.07c0.15,0.15,0.34,0.22,0.54,0.22c0.19,0,0.39-0.07,0.54-0.22l6.33-6.33
				c0.3-0.3,0.3-0.78,0-1.07C202.6,20.75,202.12,20.75,201.82,21.04z"/>
			<path d="M197.54,16.76l-6.36,6.36c-0.3,0.3-0.3,0.78,0,1.07c0.15,0.15,0.34,0.22,0.54,0.22c0.19,0,0.39-0.07,0.54-0.22l6.36-6.36
				c0.3-0.3,0.3-0.78,0-1.07C198.31,16.46,197.84,16.46,197.54,16.76z"/>
			<path d="M182.39,36.36c-2.4,0-2.9-1.4-2.9-2.57c0-1.42,1.3-2.57,2.9-2.57c1.21,0,2.3,0.67,2.72,1.68
				c0.16,0.39,0.61,0.57,0.99,0.4c0.39-0.16,0.57-0.61,0.4-0.99c-0.57-1.36-1.85-2.3-3.36-2.54v-1.14c0-0.42-0.34-0.76-0.76-0.76
				c-0.42,0-0.76,0.34-0.76,0.76v1.14c-2.08,0.33-3.66,2-3.66,4.01c0,1.97,1.16,4.09,4.42,4.09c2.41,0,2.92,1.4,2.92,2.57
				c0,1.42-1.3,2.57-2.9,2.57c-1.21,0-2.3-0.67-2.72-1.68c-0.16-0.38-0.6-0.57-0.99-0.4c-0.39,0.16-0.57,0.61-0.4,0.99
				c0.57,1.36,1.84,2.29,3.35,2.54v1.14c0,0.42,0.34,0.76,0.76,0.76c0.42,0,0.76-0.34,0.76-0.76v-1.14c2.08-0.33,3.67-2,3.67-4.02
				C186.83,38.47,185.66,36.36,182.39,36.36z"/>
		</g>
	</g>
</g>
</svg>
