<?xml version="1.0" encoding="utf-8"?>
<!-- Generator: Adobe Illustrator 24.2.0, SVG Export Plug-In . SVG Version: 6.00 Build 0)  -->
<svg version="1.1" id="Layer_1" xmlns="http://www.w3.org/2000/svg" xmlns:xlink="http://www.w3.org/1999/xlink" x="0px" y="0px"
	 viewBox="0 0 219 50" style="enable-background:new 0 0 219 50;" xml:space="preserve">
<style type="text/css">
	.st0{fill:#FF7745;}
	.st1{fill:none;stroke:#000000;stroke-width:7.2174;stroke-linecap:round;stroke-linejoin:round;stroke-miterlimit:10;}
	.st2{fill:none;stroke:#000000;stroke-width:3.6087;stroke-linecap:round;stroke-linejoin:round;stroke-miterlimit:10;}
	.st3{fill:#020303;}
	.st4{fill:#FF7745;stroke:#FF7745;stroke-width:1.5;stroke-linecap:round;stroke-linejoin:round;stroke-miterlimit:10;}
	.st5{fill:#020303;stroke:#000000;stroke-miterlimit:10;}
	.st6{fill:none;stroke:#000000;stroke-width:2.5;stroke-linecap:round;stroke-linejoin:round;stroke-miterlimit:10;}
	.st7{fill:none;stroke:#FF7745;stroke-width:5;stroke-linecap:round;stroke-linejoin:round;stroke-miterlimit:10;}
</style>
<g>
	<g>
		<path d="M8.56,24.69c-0.04-0.52-0.1-1.06-0.16-1.61c-0.06-0.55-0.13-1.08-0.19-1.61c-0.07-0.52-0.13-1.01-0.2-1.47
			c-0.07-0.46-0.13-0.87-0.18-1.22c-0.05-0.35-0.1-0.63-0.13-0.84c-0.03-0.21-0.05-0.32-0.05-0.32L5.5,18.14l1.13,6.4v-0.01
			c0.01,0.08,0.02,0.15,0.02,0.21c0.01,0.07,0.01,0.13,0.01,0.19c0,0.21-0.03,0.42-0.08,0.61c-0.05,0.19-0.13,0.37-0.22,0.53
			c-0.09,0.16-0.19,0.3-0.31,0.42s-0.24,0.22-0.36,0.3c-0.07-0.26-0.16-0.56-0.28-0.91c-0.11-0.35-0.25-0.74-0.42-1.16
			c-0.17-0.42-0.36-0.87-0.58-1.34c-0.22-0.48-0.47-0.97-0.75-1.47c-0.28-0.51-0.58-1.02-0.92-1.55s-0.7-1.05-1.1-1.57L0,20.48
			c0.01,0.01,0.06,0.07,0.16,0.19c0.1,0.12,0.24,0.29,0.41,0.5c0.17,0.21,0.36,0.46,0.58,0.76c0.22,0.29,0.44,0.61,0.67,0.96
			C2.05,23.24,2.28,23.61,2.5,24c0.23,0.39,0.43,0.79,0.62,1.2c0.19,0.41,0.35,0.82,0.49,1.23c0.14,0.41,0.23,0.82,0.27,1.21
			c-0.1,0.01-0.22,0.02-0.36,0.03S3.27,27.7,3.18,27.7c-0.17,0-0.37-0.01-0.62-0.04c-0.24-0.02-0.55-0.06-0.92-0.11l-0.38,2.24
			c0.3,0.04,0.59,0.08,0.86,0.1c0.27,0.02,0.51,0.04,0.74,0.04c0.39,0,0.78-0.03,1.18-0.09c0.4-0.06,0.78-0.15,1.16-0.27
			s0.73-0.28,1.07-0.46c0.34-0.18,0.64-0.4,0.92-0.65c0.19-0.19,0.37-0.41,0.54-0.67c0.17-0.25,0.32-0.53,0.44-0.82
			c0.13-0.3,0.23-0.6,0.3-0.93c0.07-0.33,0.11-0.65,0.11-0.98c0-0.06,0-0.12,0-0.18C8.57,24.8,8.57,24.74,8.56,24.69z"/>
		<path d="M19.56,16.88l-5.99,2.67l-0.22,1.94c0.27,0.22,0.53,0.44,0.8,0.68c0.27,0.23,0.52,0.47,0.76,0.7
			c0.24,0.24,0.47,0.47,0.68,0.69c0.21,0.23,0.4,0.44,0.57,0.64c0.17,0.2,0.3,0.39,0.41,0.56c0.11,0.17,0.18,0.31,0.21,0.43
			c0.02,0.1,0.04,0.21,0.06,0.3c0.02,0.1,0.03,0.19,0.03,0.29c0,0.28-0.07,0.53-0.21,0.75c-0.1,0.14-0.27,0.25-0.5,0.34
			c-0.23,0.08-0.49,0.14-0.78,0.18c-0.29,0.04-0.59,0.06-0.9,0.07c-0.31,0.01-0.59,0.01-0.85,0.01h-0.59
			c-0.02,0-0.04-0.01-0.06-0.01h-0.06c-0.12,0-0.24,0-0.34-0.01c-0.1,0-0.2-0.02-0.28-0.05c-0.09-0.03-0.16-0.07-0.22-0.12
			c-0.06-0.06-0.12-0.14-0.16-0.25c-0.11-0.29-0.17-0.59-0.19-0.9c-0.01-0.16-0.02-0.33-0.02-0.49c0-0.15,0-0.3,0.01-0.46
			c0.02-0.32,0.05-0.66,0.08-1c0.02-0.29,0.04-0.59,0.04-0.9v-0.14c0-0.4-0.01-0.84-0.02-1.31c-0.01-0.47-0.03-0.94-0.06-1.41
			c-0.03-0.47-0.06-0.91-0.1-1.34c-0.04-0.43-0.09-0.8-0.15-1.11l-2.13,0.65c0.07,0.37,0.13,0.8,0.17,1.29
			c0.04,0.49,0.07,1.01,0.09,1.54c0.02,0.54,0.03,1.07,0.04,1.61c0,0.54,0.01,1.03,0.01,1.48c0,0.45,0,0.84-0.01,1.17
			c-0.01,0.33-0.01,0.58-0.02,0.76v0.11c0,0.13,0,0.28,0.01,0.46c0.01,0.18,0.03,0.37,0.08,0.57c0.05,0.2,0.12,0.41,0.22,0.62
			c0.1,0.21,0.25,0.41,0.44,0.6c0.3,0.3,0.67,0.52,1.08,0.67c0.33,0.11,0.72,0.17,1.15,0.19c0.08,0.02,0.17,0.02,0.26,0.02l2.3,0.01
			c0.11,0,0.22-0.01,0.34-0.01c0.11-0.01,0.24-0.03,0.36-0.05l-0.01,0.01c1.14-0.2,1.95-0.74,2.45-1.62
			c0.13-0.24,0.25-0.52,0.34-0.82c0.09-0.31,0.14-0.64,0.14-1v-0.04c0-0.29-0.04-0.58-0.12-0.88c-0.09-0.31-0.21-0.63-0.36-0.93
			c-0.15-0.31-0.33-0.61-0.54-0.91c-0.21-0.29-0.42-0.57-0.66-0.84c-0.23-0.26-0.47-0.51-0.72-0.73c-0.25-0.22-0.49-0.42-0.72-0.58
			l4.74-2.2L19.56,16.88z"/>
		<polygon points="31.09,21.96 32.44,23.32 33.81,21.94 32.43,20.56 31.09,21.9 29.73,20.55 28.36,21.92 29.75,23.3 		"/>
		<rect x="46.01" y="17.95" transform="matrix(0.7069 -0.7073 0.7073 0.7069 0.4139 38.7049)" width="1.8" height="1.81"/>
		<polygon points="46.9,20.94 48.26,22.3 49.63,20.92 48.25,19.54 46.9,20.88 45.55,19.53 44.18,20.9 45.56,22.28 		"/>
		<path d="M58.93,26.89c0.09-0.31,0.14-0.64,0.14-1v-0.04c0-0.29-0.04-0.58-0.12-0.88c-0.09-0.31-0.21-0.63-0.36-0.93
			c-0.15-0.31-0.33-0.61-0.54-0.91c-0.21-0.29-0.42-0.57-0.66-0.84c-0.23-0.26-0.47-0.51-0.72-0.73c-0.25-0.22-0.49-0.42-0.72-0.58
			l4.74-2.2l-0.86-1.91l-5.99,2.67l-0.22,1.94c0.27,0.22,0.53,0.44,0.8,0.68c0.27,0.23,0.52,0.47,0.76,0.7
			c0.24,0.24,0.47,0.47,0.68,0.69c0.21,0.23,0.4,0.44,0.57,0.64s0.3,0.39,0.41,0.56c0.11,0.17,0.18,0.31,0.21,0.43
			c0.02,0.1,0.04,0.21,0.06,0.3c0.02,0.1,0.03,0.19,0.03,0.29c0,0.28-0.07,0.53-0.21,0.75c-0.1,0.14-0.27,0.25-0.5,0.34
			c-0.23,0.08-0.49,0.14-0.78,0.18c-0.29,0.04-0.59,0.06-0.9,0.07c-0.31,0.01-0.59,0.01-0.85,0.01h-0.75
			c-0.03,0-0.05,0.01-0.08,0.01c-0.03,0-0.05-0.01-0.08-0.01h-0.09c-0.13,0-0.26-0.03-0.41-0.08c-0.14-0.05-0.28-0.14-0.41-0.24
			c-0.13-0.11-0.24-0.24-0.34-0.4c-0.1-0.16-0.16-0.35-0.19-0.57l-0.23-2.01l-1.93,0.27c0.01,0.16,0.02,0.35,0.02,0.56
			c0,0.21-0.01,0.43-0.04,0.66c-0.02,0.22-0.06,0.44-0.11,0.66c-0.05,0.22-0.11,0.41-0.19,0.58c-0.08,0.17-0.17,0.31-0.29,0.41
			c-0.11,0.1-0.25,0.16-0.41,0.16c-0.18,0-0.31-0.06-0.41-0.18c-0.1-0.12-0.17-0.27-0.22-0.45c-0.05-0.18-0.07-0.39-0.07-0.62
			c-0.01-0.03-0.01-0.06-0.01-0.09c0-0.19,0.01-0.39,0.02-0.58c0.01-0.22,0.03-0.43,0.06-0.63c0.02-0.2,0.04-0.36,0.05-0.47
			l-1.88-0.27c-0.03,0.19-0.08,0.41-0.14,0.66c-0.06,0.25-0.14,0.5-0.22,0.76c-0.09,0.26-0.18,0.51-0.29,0.75
			c-0.1,0.24-0.22,0.46-0.34,0.64c-0.12,0.18-0.25,0.32-0.39,0.42c-0.1,0.07-0.2,0.11-0.31,0.11c-0.04,0-0.08,0-0.12-0.01
			c-0.14-0.03-0.23-0.14-0.29-0.32c-0.05-0.18-0.08-0.39-0.08-0.64c-0.01-0.01-0.01-0.03-0.01-0.04c0-0.23,0.02-0.48,0.06-0.73
			c0.03-0.27,0.07-0.51,0.11-0.72c0.04-0.22,0.08-0.38,0.11-0.5l0.03-0.12l-0.01,0.03l-1.9-0.27c-0.16,0.7-0.32,1.26-0.49,1.7
			c-0.17,0.43-0.35,0.77-0.55,1.01c-0.19,0.24-0.4,0.4-0.62,0.48c-0.22,0.08-0.45,0.12-0.71,0.12c-0.01,0-0.01,0-0.02,0
			c-0.02,0-0.03,0-0.05,0c-0.31,0-0.58-0.04-0.83-0.12c-0.24-0.08-0.44-0.19-0.6-0.32s-0.27-0.3-0.33-0.48
			c-0.04-0.11-0.06-0.23-0.06-0.35c0-0.09,0.01-0.17,0.03-0.26l0.29-1.51l-2-0.51c-0.06,0.24-0.12,0.48-0.17,0.72
			c-0.06,0.24-0.13,0.46-0.23,0.68c-0.09,0.22-0.2,0.42-0.33,0.62c-0.13,0.19-0.29,0.37-0.49,0.54c-0.22,0.18-0.48,0.33-0.79,0.46
			c-0.31,0.13-0.65,0.23-1.03,0.31c-0.38,0.08-0.79,0.14-1.24,0.17c-0.45,0.04-0.92,0.05-1.42,0.05c-0.54,0-1.07-0.02-1.59-0.06
			c-0.52-0.04-0.99-0.11-1.43-0.2c-0.43-0.09-0.8-0.21-1.11-0.35c-0.31-0.14-0.52-0.32-0.64-0.52c-0.07-0.26-0.11-0.5-0.11-0.72
			c0-0.01-0.01-0.02-0.01-0.03c0-0.2,0.02-0.4,0.06-0.58c0.04-0.19,0.1-0.37,0.19-0.55c0.08-0.18,0.17-0.36,0.26-0.54l-1.7-0.98
			c-0.24,0.47-0.42,0.92-0.55,1.35c-0.13,0.44-0.2,0.85-0.23,1.23c0,0.1-0.01,0.2-0.01,0.3c0,0.28,0.02,0.54,0.07,0.78
			c0.07,0.33,0.17,0.63,0.32,0.88c0.24,0.39,0.57,0.72,0.98,1c0.42,0.28,0.91,0.52,1.46,0.71c0.56,0.19,1.17,0.33,1.85,0.42
			c0.68,0.09,1.4,0.14,2.15,0.15c1.28,0,2.4-0.14,3.36-0.41c0.96-0.28,1.78-0.7,2.45-1.28c0.34,0.6,0.79,1.03,1.33,1.28
			c0.54,0.26,1.21,0.38,1.99,0.38h0.06c0.01,0,0.03,0,0.04,0c0.02,0,0.03,0,0.04,0c0.56,0,1.02-0.08,1.4-0.23
			c0.38-0.15,0.7-0.41,0.95-0.76c0.23,0.31,0.52,0.56,0.86,0.74c0.35,0.18,0.72,0.27,1.13,0.27c0.43,0,0.83-0.1,1.19-0.29
			c0.36-0.19,0.69-0.45,0.97-0.76c0.24,0.32,0.55,0.57,0.91,0.76c0.36,0.19,0.76,0.28,1.2,0.28c0.38,0,0.75-0.08,1.08-0.24
			c0.34-0.16,0.63-0.37,0.89-0.65v0.01c0.02-0.03,0.05-0.06,0.08-0.09c0.03-0.03,0.06-0.06,0.09-0.1c0.3,0.38,0.65,0.66,1.06,0.82
			c0.41,0.16,0.84,0.24,1.31,0.24c0.04,0,0.08-0.01,0.12-0.01c0.04,0,0.08,0.01,0.12,0.01l2.3,0.01c0.11,0,0.22-0.01,0.34-0.01
			c0.11-0.01,0.24-0.03,0.36-0.05l-0.01,0.01c1.14-0.2,1.95-0.74,2.45-1.62C58.73,27.48,58.84,27.2,58.93,26.89z"/>
		<polygon points="59.16,15.29 53.7,17.57 53.64,18.64 59.55,16.14 		"/>
		<path d="M64.48,27.02c-0.04-0.23-0.1-0.46-0.15-0.69c-0.06-0.23-0.11-0.45-0.17-0.67c-0.13-0.49-0.29-0.99-0.47-1.51l-2.06,0.94
			c0.15,0.34,0.29,0.67,0.41,0.97c0.13,0.3,0.24,0.59,0.33,0.86c0.09,0.27,0.17,0.52,0.22,0.75c0.06,0.23,0.08,0.45,0.08,0.65
			c0,0.28-0.06,0.56-0.18,0.85c-0.12,0.29-0.28,0.57-0.49,0.85c-0.21,0.28-0.45,0.56-0.73,0.83c-0.28,0.27-0.58,0.53-0.9,0.78
			c-0.32,0.25-0.66,0.48-1.01,0.7c-0.35,0.22-0.7,0.41-1.04,0.58l1.3,1.81c0.45-0.22,0.89-0.47,1.31-0.75
			c0.42-0.28,0.82-0.58,1.19-0.9c0.37-0.32,0.71-0.67,1.01-1.04c0.3-0.37,0.57-0.75,0.79-1.15c0.22-0.4,0.39-0.81,0.51-1.24
			c0.12-0.43,0.18-0.86,0.18-1.31c0-0.19-0.01-0.4-0.04-0.62C64.56,27.48,64.53,27.25,64.48,27.02z"/>
		<rect x="61.34" y="20.28" transform="matrix(0.7073 -0.7069 0.7069 0.7073 3.1521 50.4205)" width="2.24" height="2.24"/>
		<rect x="69.97" y="30.5" transform="matrix(0.7071 -0.7071 0.7071 0.7071 -1.5374 59.5314)" width="2.24" height="2.24"/>
		<path d="M73.55,24.12c-0.1-0.35-0.22-0.69-0.35-1.03c-0.13-0.34-0.26-0.66-0.4-0.96l-2.04,1.01c0.14,0.27,0.28,0.56,0.42,0.86
			c0.14,0.3,0.26,0.6,0.37,0.87c0.11,0.28,0.2,0.53,0.26,0.76c0.07,0.23,0.1,0.4,0.1,0.51c0,0.17-0.02,0.3-0.06,0.39
			c-0.06,0.13-0.15,0.23-0.28,0.31c-0.13,0.08-0.28,0.14-0.45,0.18c-0.17,0.04-0.35,0.07-0.54,0.09c-0.19,0.01-0.38,0.02-0.55,0.02
			h-0.93c-0.02,0-0.04-0.01-0.06-0.01h-0.06c-0.12,0-0.24,0-0.34-0.01c-0.1,0-0.2-0.02-0.28-0.05c-0.09-0.03-0.16-0.07-0.22-0.12
			c-0.06-0.06-0.12-0.14-0.16-0.25c-0.11-0.29-0.17-0.59-0.19-0.9c-0.01-0.16-0.02-0.33-0.02-0.49c0-0.15,0-0.3,0.01-0.46
			c0.02-0.32,0.05-0.66,0.08-1c0.02-0.29,0.04-0.59,0.04-0.9v-0.14c0-0.4-0.01-0.84-0.02-1.31c-0.01-0.47-0.03-0.94-0.06-1.41
			c-0.03-0.47-0.06-0.91-0.1-1.34c-0.04-0.43-0.09-0.8-0.15-1.11l-2.13,0.65c0.07,0.37,0.13,0.8,0.17,1.29
			c0.04,0.49,0.07,1.01,0.09,1.54c0.02,0.54,0.03,1.07,0.04,1.61c0,0.54,0.01,1.03,0.01,1.48c0,0.45,0,0.84-0.01,1.17
			c-0.01,0.33-0.01,0.58-0.02,0.76v0.11c0,0.13,0,0.28,0.01,0.46c0.01,0.18,0.03,0.37,0.08,0.57c0.05,0.2,0.12,0.41,0.22,0.62
			c0.1,0.21,0.25,0.41,0.44,0.6c0.3,0.3,0.67,0.52,1.08,0.67c0.36,0.12,0.79,0.18,1.28,0.2c0.05,0.01,0.11,0.02,0.16,0.02h1.04
			c0.23,0,0.47-0.01,0.74-0.03c0.26-0.02,0.54-0.07,0.82-0.15c0.49-0.14,0.9-0.35,1.25-0.65c0.35-0.29,0.62-0.66,0.82-1.11
			c0.17-0.4,0.26-0.84,0.26-1.32c0-0.31-0.03-0.64-0.1-0.99C73.74,24.81,73.66,24.46,73.55,24.12z"/>
		<polygon points="85.05,21.96 86.4,23.32 87.77,21.94 86.39,20.56 85.05,21.9 83.69,20.55 82.32,21.92 83.71,23.3 		"/>
		<path d="M106.67,27.04c0.24-0.44,0.36-0.91,0.39-1.41v-0.14c0-0.36-0.06-0.72-0.19-1.08c-0.14-0.4-0.36-0.77-0.66-1.09
			s-0.67-0.58-1.11-0.78c-0.43-0.19-0.93-0.29-1.49-0.29h-0.04c-0.5,0-0.97,0.06-1.38,0.17c-0.42,0.11-0.8,0.25-1.16,0.43
			c-0.35,0.18-0.68,0.4-0.97,0.65c-0.3,0.25-0.57,0.52-0.82,0.82c-0.25,0.29-0.49,0.6-0.71,0.93c-0.22,0.33-0.43,0.65-0.63,0.99
			c-0.07-0.17-0.11-0.34-0.12-0.49c0-0.07-0.01-0.14-0.01-0.21c0-0.09,0.01-0.17,0.01-0.26c0.01-0.16,0.04-0.32,0.09-0.48
			c0.04-0.16,0.09-0.34,0.14-0.52l-1.87-0.61c-0.12,0.5-0.22,0.92-0.32,1.26s-0.18,0.61-0.26,0.83c-0.08,0.22-0.15,0.39-0.22,0.52
			c-0.07,0.13-0.13,0.25-0.2,0.35l0.01-0.01c-0.04,0.05-0.09,0.11-0.16,0.17c-0.07,0.06-0.16,0.11-0.27,0.16
			c-0.11,0.05-0.25,0.09-0.42,0.12c-0.17,0.03-0.37,0.05-0.6,0.05c0,0-0.01,0-0.01,0c0,0-0.01,0-0.01,0c-0.31,0-0.58-0.04-0.83-0.12
			c-0.24-0.08-0.44-0.19-0.6-0.32s-0.27-0.3-0.33-0.48c-0.04-0.11-0.06-0.23-0.06-0.35c0-0.09,0.01-0.17,0.03-0.26l0.29-1.51
			l-2-0.51c-0.06,0.24-0.12,0.48-0.17,0.72s-0.13,0.46-0.23,0.68c-0.09,0.22-0.2,0.42-0.33,0.62c-0.13,0.19-0.29,0.37-0.49,0.54
			c-0.22,0.18-0.48,0.33-0.79,0.46c-0.31,0.13-0.65,0.23-1.03,0.31c-0.38,0.08-0.79,0.14-1.24,0.17c-0.45,0.04-0.92,0.05-1.42,0.05
			c-0.54,0-1.07-0.02-1.59-0.06c-0.52-0.04-0.99-0.11-1.43-0.2c-0.43-0.09-0.8-0.21-1.11-0.35c-0.31-0.14-0.52-0.32-0.64-0.52
			c-0.07-0.26-0.11-0.5-0.11-0.72c0-0.01-0.01-0.02-0.01-0.03c0-0.2,0.02-0.4,0.06-0.58c0.04-0.19,0.1-0.37,0.19-0.55
			c0.08-0.18,0.17-0.36,0.26-0.54l-1.7-0.98c-0.24,0.47-0.42,0.92-0.55,1.35c-0.13,0.44-0.2,0.85-0.23,1.23c0,0.1-0.01,0.2-0.01,0.3
			c0,0.28,0.02,0.54,0.07,0.78c0.07,0.33,0.17,0.63,0.32,0.88c0.24,0.39,0.57,0.72,0.98,1c0.42,0.28,0.91,0.52,1.46,0.71
			c0.56,0.19,1.17,0.33,1.85,0.42c0.68,0.09,1.4,0.14,2.15,0.15c1.28,0,2.4-0.14,3.36-0.41c0.96-0.28,1.78-0.7,2.45-1.28
			c0.34,0.6,0.79,1.03,1.33,1.28c0.54,0.26,1.21,0.38,1.99,0.38h0.06c0,0,0.01,0,0.01,0c0,0,0.01,0,0.01,0h0.06
			c0.63,0,1.17-0.09,1.64-0.25s0.87-0.41,1.21-0.76c0.29,0.24,0.57,0.44,0.85,0.59c0.28,0.15,0.58,0.27,0.91,0.35
			s0.67,0.14,1.04,0.17c0.37,0.03,0.79,0.04,1.26,0.04c0.39,0,0.82-0.02,1.27-0.06c0.45-0.04,0.9-0.11,1.35-0.21
			c0.45-0.1,0.89-0.24,1.31-0.42c0.43-0.18,0.81-0.4,1.16-0.67C106.13,27.85,106.43,27.48,106.67,27.04z M104.94,26.11
			c-0.16,0.18-0.36,0.33-0.59,0.45c-0.23,0.13-0.49,0.23-0.77,0.31c-0.28,0.08-0.58,0.14-0.89,0.19s-0.62,0.08-0.93,0.09
			c-0.32,0.02-0.62,0.03-0.92,0.03c-0.22,0-0.44,0-0.68-0.01s-0.44-0.01-0.63-0.02c0.14-0.26,0.35-0.54,0.61-0.84
			c0.26-0.3,0.57-0.59,0.92-0.86c0.35-0.27,0.74-0.49,1.16-0.67c0.42-0.18,0.86-0.27,1.32-0.27c0.5,0,0.9,0.08,1.21,0.24
			c0.31,0.16,0.48,0.4,0.53,0.73C105.22,25.73,105.1,25.94,104.94,26.11z"/>
		<polygon points="120.28,21.53 120.29,21.52 120.29,21.52 		"/>
		<rect x="120.76" y="16.9" transform="matrix(0.7071 -0.7071 0.7071 0.7071 22.9541 91.4596)" width="2.24" height="2.24"/>
		<path d="M125.17,23.22c-0.12-0.33-0.26-0.65-0.42-0.94c-0.16-0.3-0.35-0.56-0.55-0.79c-0.29-0.3-0.6-0.54-0.96-0.71
			c-0.35-0.18-0.71-0.26-1.07-0.26c-0.36,0-0.7,0.08-1.02,0.25c-0.32,0.17-0.61,0.42-0.86,0.76c-0.43,0.53-0.71,1.2-0.86,2
			c-0.03,0.19-0.04,0.38-0.04,0.6c0,0.4,0.06,0.74,0.17,1.01c0.11,0.27,0.23,0.49,0.36,0.65v-0.01c0.12,0.15,0.29,0.29,0.52,0.4
			s0.5,0.21,0.82,0.27c0.32,0.07,0.68,0.1,1.09,0.11c0.08,0.01,0.15,0.01,0.23,0.01c0.34,0,0.71-0.02,1.1-0.06
			c-0.13,0.09-0.31,0.16-0.53,0.22c-0.23,0.06-0.48,0.12-0.76,0.17c-0.28,0.05-0.57,0.09-0.88,0.11c-0.31,0.03-0.61,0.05-0.9,0.07
			c-0.3,0.02-0.57,0.03-0.83,0.04c-0.26,0.01-0.48,0.01-0.65,0.01h-6.4h-0.04c-0.18,0-0.35-0.05-0.51-0.14
			c-0.16-0.09-0.32-0.25-0.48-0.48c-0.16-0.23-0.32-0.53-0.49-0.91c-0.17-0.38-0.34-0.86-0.54-1.43l-2.06,0.9
			c0.15,0.34,0.29,0.66,0.41,0.95c0.12,0.29,0.23,0.56,0.32,0.82c0.09,0.26,0.17,0.52,0.23,0.77c0.06,0.25,0.11,0.52,0.14,0.79
			v-0.02l0.01,0.01v0.06c0,0.03,0,0.06,0,0.09c0,0.03,0,0.05,0,0.06c0,0.28-0.06,0.56-0.17,0.83c-0.11,0.27-0.27,0.54-0.47,0.8
			c-0.2,0.26-0.43,0.52-0.7,0.76c-0.27,0.24-0.56,0.48-0.87,0.71c-0.31,0.23-0.64,0.44-0.98,0.64c-0.34,0.2-0.68,0.39-1.02,0.56
			l1.31,1.81c0.61-0.31,1.19-0.66,1.73-1.05c0.54-0.39,1.02-0.82,1.45-1.28c0.42-0.46,0.78-0.96,1.07-1.49
			c0.29-0.53,0.48-1.09,0.59-1.68c0.22,0.09,0.42,0.14,0.61,0.16c0.14,0.01,0.25,0.02,0.35,0.02c0.01,0,0.02,0,0.03,0h6.46h0.03
			h0.09c0.49,0,0.99-0.02,1.47-0.06c0.49-0.03,0.96-0.1,1.4-0.19c0.45-0.09,0.87-0.21,1.26-0.37c0.39-0.16,0.74-0.36,1.04-0.61
			c0.3-0.25,0.55-0.56,0.75-0.92c0.19-0.36,0.32-0.79,0.38-1.28c0.01-0.1,0.02-0.2,0.02-0.3c0.01-0.11,0.01-0.22,0.01-0.32
			c0-0.36-0.03-0.72-0.1-1.08C125.38,23.9,125.29,23.55,125.17,23.22z M123.18,24.69h-0.41c-0.15-0.01-0.3-0.02-0.46-0.03
			c-0.16-0.02-0.31-0.04-0.45-0.06c-0.14-0.03-0.26-0.06-0.36-0.1c-0.1-0.04-0.17-0.09-0.2-0.15c-0.06-0.1-0.09-0.22-0.09-0.36
			c0-0.15,0.03-0.3,0.09-0.45c0.06-0.15,0.14-0.28,0.23-0.39c0.09-0.11,0.2-0.21,0.31-0.28c0.1-0.06,0.2-0.09,0.31-0.09h0.02
			c0.19,0.01,0.35,0.07,0.49,0.19c0.14,0.12,0.27,0.27,0.37,0.45c0.1,0.18,0.19,0.38,0.26,0.6c0.07,0.22,0.12,0.44,0.17,0.65
			C123.39,24.67,123.3,24.68,123.18,24.69z"/>
		<path d="M133.73,27.02c-0.04-0.23-0.1-0.46-0.15-0.69c-0.06-0.23-0.11-0.45-0.17-0.67c-0.13-0.49-0.29-0.99-0.47-1.51l-2.06,0.94
			c0.15,0.34,0.29,0.67,0.41,0.97c0.13,0.3,0.24,0.59,0.33,0.86c0.09,0.27,0.17,0.52,0.22,0.75c0.06,0.23,0.08,0.45,0.08,0.65
			c0,0.28-0.06,0.56-0.18,0.85s-0.28,0.57-0.49,0.85c-0.21,0.28-0.45,0.56-0.73,0.83s-0.58,0.53-0.9,0.78
			c-0.32,0.25-0.66,0.48-1.01,0.7c-0.35,0.22-0.7,0.41-1.04,0.58l1.3,1.81c0.45-0.22,0.89-0.47,1.31-0.75
			c0.42-0.28,0.82-0.58,1.19-0.9c0.37-0.32,0.71-0.67,1.01-1.04c0.3-0.37,0.57-0.75,0.79-1.15c0.22-0.4,0.39-0.81,0.51-1.24
			c0.12-0.43,0.18-0.86,0.18-1.31c0-0.19-0.01-0.4-0.04-0.62C133.81,27.48,133.77,27.25,133.73,27.02z"/>
		<rect x="130.58" y="20.28" transform="matrix(0.7073 -0.7069 0.7069 0.7073 23.4218 99.372)" width="2.24" height="2.24"/>
		<path d="M140.75,30.03c0.19-0.49,0.32-1.01,0.37-1.57c0.01-0.11,0.02-0.23,0.02-0.35c0.01-0.12,0.01-0.25,0.01-0.37
			c0-0.4-0.03-0.8-0.1-1.2c-0.07-0.39-0.16-0.77-0.29-1.13c-0.13-0.36-0.28-0.7-0.46-1.02c-0.18-0.32-0.39-0.61-0.61-0.86
			c-0.65-0.7-1.37-1.06-2.18-1.06c-0.38,0-0.73,0.09-1.07,0.27c-0.34,0.18-0.65,0.45-0.94,0.81c-0.13,0.18-0.26,0.38-0.37,0.6
			c-0.12,0.22-0.22,0.45-0.3,0.7c-0.09,0.25-0.15,0.5-0.2,0.76c-0.05,0.26-0.07,0.52-0.07,0.77c0,0.33,0.04,0.65,0.12,0.95
			c0.08,0.3,0.22,0.58,0.42,0.84c0.27,0.34,0.63,0.6,1.09,0.8c0.46,0.2,0.96,0.32,1.51,0.37c0.15,0.01,0.34,0.02,0.56,0.03
			c0.23,0.01,0.45,0.01,0.65,0.01c-0.11,0.29-0.31,0.58-0.58,0.86c-0.27,0.28-0.62,0.55-1.03,0.8c-0.42,0.25-0.9,0.48-1.45,0.68
			s-1.16,0.37-1.83,0.5l0.53,2.19c0.55-0.09,1.09-0.21,1.61-0.38s1.02-0.38,1.49-0.64c0.47-0.25,0.9-0.55,1.3-0.89
			c0.4-0.34,0.75-0.71,1.05-1.12C140.31,30.97,140.55,30.52,140.75,30.03z M139,27.13h-0.06c-0.02,0-0.04,0-0.07,0
			c-0.03,0-0.06,0-0.11,0c-0.15,0-0.31,0-0.47,0c-0.16,0-0.3-0.01-0.42-0.02h0.01c-0.16-0.01-0.32-0.04-0.49-0.07
			c-0.17-0.03-0.32-0.08-0.46-0.15c-0.14-0.07-0.26-0.15-0.35-0.26c-0.09-0.1-0.14-0.24-0.14-0.39c0-0.17,0.04-0.34,0.11-0.52
			c0.07-0.18,0.17-0.35,0.28-0.5c0.11-0.15,0.23-0.27,0.36-0.36c0.1-0.07,0.19-0.11,0.28-0.11c0.02,0,0.04,0,0.06,0.01
			c0.2,0.04,0.38,0.13,0.54,0.27c0.16,0.14,0.31,0.32,0.44,0.53c0.13,0.21,0.24,0.46,0.34,0.72c0.1,0.27,0.18,0.55,0.25,0.85
			C139.05,27.12,139.01,27.13,139,27.13z"/>
		<path d="M145.92,27.02c-0.04-0.23-0.1-0.46-0.15-0.69c-0.06-0.23-0.11-0.45-0.17-0.67c-0.13-0.49-0.29-0.99-0.47-1.51l-2.06,0.94
			c0.15,0.34,0.29,0.67,0.41,0.97c0.13,0.3,0.24,0.59,0.33,0.86c0.09,0.27,0.17,0.52,0.22,0.75c0.05,0.23,0.08,0.45,0.08,0.65
			c0,0.28-0.06,0.56-0.18,0.85c-0.12,0.29-0.28,0.57-0.49,0.85c-0.21,0.28-0.45,0.56-0.73,0.83s-0.58,0.53-0.9,0.78
			c-0.32,0.25-0.66,0.48-1.01,0.7c-0.35,0.22-0.7,0.41-1.04,0.58l1.3,1.81c0.45-0.22,0.89-0.47,1.31-0.75
			c0.42-0.28,0.82-0.58,1.19-0.9c0.37-0.32,0.71-0.67,1.01-1.04c0.3-0.37,0.57-0.75,0.79-1.15c0.22-0.4,0.39-0.81,0.51-1.24
			c0.12-0.43,0.18-0.86,0.18-1.31c0-0.19-0.01-0.4-0.04-0.62C146,27.48,145.96,27.25,145.92,27.02z"/>
		<path d="M157.02,17.99c-0.13,0.2-0.27,0.46-0.41,0.76c-0.14,0.3-0.28,0.63-0.43,1c-0.14,0.36-0.29,0.75-0.43,1.17
			s-0.28,0.84-0.42,1.28c-0.14,0.44-0.27,0.87-0.4,1.32c-0.13,0.44-0.25,0.87-0.36,1.28c-0.14-0.53-0.3-1.08-0.48-1.64
			s-0.38-1.12-0.6-1.69c-0.22-0.57-0.47-1.14-0.75-1.72c-0.28-0.57-0.58-1.14-0.93-1.71l-1.83,1.18c0.29,0.45,0.57,0.92,0.85,1.4
			c0.28,0.48,0.54,0.98,0.79,1.49c0.25,0.52,0.48,1.05,0.7,1.61c0.21,0.56,0.4,1.14,0.55,1.76c0.15,0.62,0.28,1.26,0.36,1.94
			c0.09,0.68,0.13,1.39,0.13,2.14h2.18c0.01-0.81,0.12-1.69,0.32-2.63c0.2-0.94,0.49-1.95,0.86-3.01c0.16-0.46,0.33-0.92,0.5-1.36
			c0.17-0.45,0.35-0.87,0.53-1.28c0.18-0.41,0.36-0.79,0.54-1.14s0.36-0.68,0.55-0.96L157.02,17.99z"/>
	</g>
	<g>
		<path class="st0" d="M179.56,29.27l7.85-13.13l30.88-1.06l-0.77,24.96c-0.04,1.28-1.09,2.3-2.37,2.3h-27.46L179.56,29.27z"/>
		<g>
			<path d="M214.96,49.24v-6.39c2.28-0.37,4.04-2.33,4.04-4.72V11.87c0-2.39-1.76-4.35-4.04-4.72V0.76c0-0.42-0.34-0.76-0.76-0.76
				h-44.44C169.34,0,169,0.34,169,0.76v48.48c0,0.42,0.34,0.76,0.76,0.76h44.44C214.62,50,214.96,49.66,214.96,49.24z M217.49,38.13
				c0,1.81-1.47,3.28-3.28,3.28h-25.84l-7.62-12.37l7.62-12.37h25.84c1.27,0,2.42-0.49,3.28-1.3V38.13z M217.49,11.87
				c0,1.55-1.08,2.84-2.52,3.19V8.68C216.41,9.03,217.49,10.32,217.49,11.87z M170.52,48.48V1.52h42.93v13.64h-25.51
				c-0.26,0-0.51,0.14-0.65,0.36l-8.08,13.13c-0.08,0.12-0.11,0.26-0.11,0.4c0,0.14,0.04,0.28,0.11,0.4l8.08,13.13
				c0.14,0.22,0.38,0.36,0.65,0.36h25.51v5.55H170.52z"/>
			<path d="M184.55,43.43h-9.74c-0.42,0-0.76,0.34-0.76,0.76c0,0.42,0.34,0.76,0.76,0.76h9.74c0.42,0,0.76-0.34,0.76-0.76
				C185.3,43.77,184.96,43.43,184.55,43.43z"/>
			<path d="M183.07,38.38h-1.83c-0.42,0-0.76,0.34-0.76,0.76c0,0.42,0.34,0.76,0.76,0.76h1.83c0.42,0,0.76-0.34,0.76-0.76
				C183.83,38.72,183.49,38.38,183.07,38.38z"/>
			<path d="M174.81,39.9h3.03c0.42,0,0.76-0.34,0.76-0.76c0-0.42-0.34-0.76-0.76-0.76h-3.03c-0.42,0-0.76,0.34-0.76,0.76
				C174.05,39.56,174.39,39.9,174.81,39.9z"/>
			<g>
				<path d="M183.56,12.74c-0.14,0-0.27-0.04-0.39-0.12c-0.2-0.13-0.32-0.35-0.32-0.59V0.73c0-0.39,0.32-0.71,0.71-0.71h18.24
					c0.39,0,0.71,0.32,0.71,0.71v11.3c0,0.25-0.13,0.47-0.34,0.6c-0.21,0.13-0.47,0.14-0.69,0.03l-3.87-1.97l-4.36,1.98
					c-0.17,0.08-0.37,0.08-0.55,0.02l-4.64-1.8l-4.22,1.79C183.75,12.72,183.66,12.74,183.56,12.74z M188.05,9.42
					c0.09,0,0.17,0.02,0.26,0.05l4.63,1.79l4.4-2c0.2-0.09,0.42-0.08,0.61,0.01l3.15,1.6V1.44h-16.83v9.52l3.5-1.48
					C187.86,9.44,187.96,9.42,188.05,9.42z"/>
			</g>
		</g>
		<path d="M194.39,22.9v1.58h7.07c-2.28,3.26-4.51,8.44-5.17,12.08l-0.06,0.34h1.67l0.05-0.23c0.82-4.1,3.06-9.16,5.46-12.31
			l0.06-0.08V22.9H194.39z"/>
	</g>
</g>
</svg>
